<?xml version="1.0" encoding="UTF-8"?>
<svg version="1.1" xmlns="http://www.w3.org/2000/svg" width="474" height="474">
<path d="M0 0 C156.42 0 312.84 0 474 0 C474 156.42 474 312.84 474 474 C317.58 474 161.16 474 0 474 C0 317.58 0 161.16 0 0 Z " fill="#FDFDFD" transform="translate(0,0)"/>
<path d="M0 0 C2.32597511 0.3813074 4.65912158 0.72460254 7 1 C7 1.66 7 2.32 7 3 C8.175625 3.12375 8.175625 3.12375 9.375 3.25 C22.71689748 6.01039258 35.17235897 13.9619844 46.4375 21.375 C47.09451904 21.80377441 47.75153809 22.23254883 48.4284668 22.67431641 C49.99146595 23.72695278 51.50195713 24.85681268 53 26 C53 26.66 53 27.32 53 28 C53.86818359 28.39251953 53.86818359 28.39251953 54.75390625 28.79296875 C60.59504863 31.93194787 65.41397698 37.29003041 70 42 C70.86625 42.825 71.7325 43.65 72.625 44.5 C78 50.15789474 78 50.15789474 78 54 C78.609646 54.24613037 79.21929199 54.49226074 79.84741211 54.74584961 C82.41457129 56.24153938 83.10256366 57.44162718 84.44140625 60.06640625 C85.07393311 61.27707764 85.07393311 61.27707764 85.71923828 62.51220703 C86.14188965 63.33317871 86.56454102 64.15415039 87 65 C87.81730209 66.46985414 88.6388399 67.93736199 89.46484375 69.40234375 C106.483227 100.34578277 113.35441023 139.15721933 103.68017578 173.68896484 C103.45571777 174.45160645 103.23125977 175.21424805 103 176 C102.76394043 176.81291504 102.52788086 177.62583008 102.28466797 178.46337891 C97.31177291 195.04290202 89.54738086 213.8029933 78 227 C77.34 227 76.68 227 76 227 C75.690625 227.61875 75.38125 228.2375 75.0625 228.875 C74.375 230.25 73.6875 231.625 73 233 C72.34 233 71.68 233 71 233 C70.67 233.99 70.34 234.98 70 236 C68.3777546 237.70993434 66.70586575 239.37347684 65 241 C64.278125 241.763125 63.55625 242.52625 62.8125 243.3125 C61 245 61 245 59 245 C58.67 245.99 58.34 246.98 58 248 C57.34 248 56.68 248 56 248 C56 248.66 56 249.32 56 250 C53.91015625 251.734375 53.91015625 251.734375 51.0625 253.75 C50.05960938 254.46027344 49.05671875 255.17054688 48.0234375 255.90234375 C47.02570313 256.59457031 46.02796875 257.28679687 45 258 C43.75089844 258.86818359 43.75089844 258.86818359 42.4765625 259.75390625 C35.67604778 264.38429084 28.52012012 267.72229695 21 271 C20.11441406 271.40476562 19.22882813 271.80953125 18.31640625 272.2265625 C11.23079207 275.36076905 4.182457 277.36733005 -3.3359375 279.10546875 C-6.94682105 279.93073238 -6.94682105 279.93073238 -10.171875 281.07421875 C-36.3958526 289.65858711 -72.74389418 282.21636109 -96.94921875 270.55078125 C-102.7679915 267.59296719 -108.56476998 264.62348668 -114 261 C-119.91378684 260.63038832 -125.33196681 262.72063117 -130.75390625 264.8125 C-134.77281723 266.28271533 -138.83618724 267.53215054 -142.9375 268.75 C-143.67162109 268.97268555 -144.40574219 269.19537109 -145.16210938 269.42480469 C-148.61719477 270.44091244 -151.36684722 271 -155 271 C-155 271.66 -155 272.32 -155 273 C-157.10251861 273.67184618 -159.20707763 274.33730968 -161.3125 275 C-162.48425781 275.37125 -163.65601563 275.7425 -164.86328125 276.125 C-168 277 -168 277 -171 277 C-170.46201656 272.02365319 -168.85452754 267.71382335 -167.109375 263.06640625 C-165.55808969 258.77852256 -164.25583388 254.42537795 -162.93359375 250.0625 C-161.41051054 245.06627726 -159.84545269 240.09577005 -157.890625 235.25 C-154.90433909 227.79921729 -154.90433909 227.79921729 -156 220 C-157.30326652 217.60843875 -158.71806781 215.31787526 -160.1796875 213.01953125 C-162.38861707 209.35536267 -164.29423779 205.58437175 -166.1875 201.75 C-166.52015869 201.07654541 -166.85281738 200.40309082 -167.19555664 199.70922852 C-167.8345958 198.41141588 -168.4711482 197.11237526 -169.10498047 195.81201172 C-169.92557411 194.15067894 -170.78330037 192.5078221 -171.64453125 190.8671875 C-172.98746755 188.02650957 -173.79296619 185.43039611 -174.5 182.375 C-174.74492187 181.33601562 -174.98984375 180.29703125 -175.2421875 179.2265625 C-175.61730469 177.62941406 -175.61730469 177.62941406 -176 176 C-176.77943451 172.99360976 -177.5624142 169.98822982 -178.3515625 166.984375 C-180.24386162 158.2752393 -180.24130442 149.55968159 -180.25 140.6875 C-180.25100708 139.97612885 -180.25201416 139.26475769 -180.25305176 138.53182983 C-180.23742224 122.19002128 -178.24215893 107.51509942 -173 92 C-172.28756261 89.44234977 -171.58479 86.88325164 -170.90625 84.31640625 C-169.6988877 81.23034658 -167.84974126 78.74554941 -166 76 C-164.86433567 73.76573266 -163.76097576 71.51480327 -162.6875 69.25 C-159.06115075 61.78625987 -154.89678384 54.89678384 -149 49 C-147.6364982 47.29910818 -146.28345519 45.58981042 -144.9375 43.875 C-138.52956145 36.02243762 -131.06565219 29.73222913 -123.125 23.5 C-122.5774707 23.0661499 -122.02994141 22.6322998 -121.46582031 22.18530273 C-118.72754903 20.08092183 -116.46891082 18.46922465 -113 18 C-113 17.34 -113 16.68 -113 16 C-80.87919909 -0.43583839 -35.82903464 -14.80933432 0 0 Z " fill="#26D267" transform="translate(269,84)"/>
<path d="M0 0 C2.5 1.3125 2.5 1.3125 5 3 C5 3.99 5 4.98 5 6 C5.598125 6.061875 6.19625 6.12375 6.8125 6.1875 C9.95302542 7.35398087 10.58160876 9.02813263 12 12 C12.6875 14.8125 12.6875 14.8125 13 17 C13.66 17 14.32 17 15 17 C17 20 17 20 17 24 C17.66 24 18.32 24 19 24 C20.02539062 26.58789062 20.02539062 26.58789062 21.05078125 29.17578125 C21.90699283 31.05735194 21.90699283 31.05735194 23.4375 32.38671875 C25.5102114 34.52679327 26.47342681 36.78747612 27.6875 39.5 C28.12449219 40.4590625 28.56148438 41.418125 29.01171875 42.40625 C30 45 30 45 30 48 C30.66 48 31.32 48 32 48 C33.98 55.92 33.98 55.92 36 64 C36.66 64 37.32 64 38 64 C41.41009858 74.55200316 41.68473563 84.99836074 42 96 C42.66 96 43.32 96 44 96 C44.0251577 100.42504534 44.04307066 104.85005022 44.05493164 109.27514648 C44.05988838 110.77320076 44.06665574 112.27125039 44.07543945 113.76928711 C44.13323303 123.89676176 43.81950418 133.90263673 43 144 C42.34 144 41.68 144 41 144 C40.87882812 145.22976563 40.75765625 146.45953125 40.6328125 147.7265625 C40.46389705 149.3594118 40.29460636 150.99222232 40.125 152.625 C40.04636719 153.43324219 39.96773438 154.24148438 39.88671875 155.07421875 C39.40468596 159.63499049 38.6615882 163.68545585 37 168 C36.34 168 35.68 168 35 168 C34.78923828 169.07894531 34.78923828 169.07894531 34.57421875 170.1796875 C31.95179549 183.05988882 26.87660767 192.79928195 19.01171875 203.30078125 C17.06688798 205.91025322 15.2146205 208.56569724 13.375 211.25 C10.84742536 214.89643223 8.16540855 218.26117305 5.1640625 221.52734375 C3.77210534 223.1166667 3.77210534 223.1166667 3 226 C2.34 226 1.68 226 1 226 C0.7525 226.61875 0.505 227.2375 0.25 227.875 C-1.20628639 230.35068687 -2.37812506 230.95125002 -5 232 C-5 232.66 -5 233.32 -5 234 C-5.66 234 -6.32 234 -7 234 C-7 234.66 -7 235.32 -7 236 C-7.66 236 -8.32 236 -9 236 C-9 236.66 -9 237.32 -9 238 C-9.66 238 -10.32 238 -11 238 C-11 238.66 -11 239.32 -11 240 C-11.66 240 -12.32 240 -13 240 C-13 240.66 -13 241.32 -13 242 C-13.66 242 -14.32 242 -15 242 C-15 242.66 -15 243.32 -15 244 C-15.66 244 -16.32 244 -17 244 C-17 244.66 -17 245.32 -17 246 C-18.66666667 247 -20.33333333 248 -22 249 C-23.70586575 250.62652316 -25.3777546 252.29006566 -27 254 C-27.66 254.66 -28.32 255.32 -29 256 C-30.32 256 -31.64 256 -33 256 C-33 256.66 -33 257.32 -33 258 C-34.48113281 258.72316406 -34.48113281 258.72316406 -35.9921875 259.4609375 C-37.2865631 260.09874577 -38.58082821 260.73677829 -39.875 261.375 C-40.52597656 261.69210937 -41.17695313 262.00921875 -41.84765625 262.3359375 C-44.58177041 263.68890121 -46.82772518 264.82772518 -49 267 C-50.98821313 267.39764263 -52.98944339 267.73775349 -55 268 C-55.33 268.99 -55.66 269.98 -56 271 C-57.85546875 271.84375 -57.85546875 271.84375 -60.1875 272.5 C-63.1065461 273.37018882 -65.36825579 274.20291645 -68.0625 275.6875 C-71.9562925 277.42727963 -74.76450239 277.21907746 -79 277 C-79 277.66 -79 278.32 -79 279 C-94.69387025 284.29006862 -111.54800482 284.31870504 -127.93823242 284.20581055 C-130.72388674 284.18725766 -133.5092114 284.1853039 -136.29492188 284.18554688 C-138.09635701 284.18063942 -139.89778994 284.17481451 -141.69921875 284.16796875 C-142.51702316 284.16685593 -143.33482758 284.1657431 -144.17741394 284.16459656 C-149.19830096 284.1234734 -154.02858396 283.71182526 -159 283 C-159 282.34 -159 281.68 -159 281 C-160.155 280.86207031 -161.31 280.72414063 -162.5 280.58203125 C-182.0843925 278.12105235 -182.0843925 278.12105235 -189.0078125 274.10546875 C-192.59078238 272.11727174 -196.44216798 270.71457882 -200.234375 269.17578125 C-203 268 -203 268 -206.375 266.125 C-209.7230529 264.69012019 -211.53069116 265.01954316 -215 266 C-215.59039062 266.33386719 -216.18078125 266.66773438 -216.7890625 267.01171875 C-219.63662401 268.28456868 -222.14548807 268.42253183 -225.25 268.625 C-226.32765625 268.69976562 -227.4053125 268.77453125 -228.515625 268.8515625 C-229.33546875 268.90054687 -230.1553125 268.94953125 -231 269 C-231 269.66 -231 270.32 -231 271 C-232.28583984 271.27263672 -232.28583984 271.27263672 -233.59765625 271.55078125 C-240.99339752 273.09901328 -240.99339752 273.09901328 -248.0625 275.6875 C-251 277 -251 277 -255 277 C-255 277.66 -255 278.32 -255 279 C-257.64 279.33 -260.28 279.66 -263 280 C-263 280.66 -263 281.32 -263 282 C-263.969375 282.21914063 -264.93875 282.43828125 -265.9375 282.6640625 C-273.31906434 284.39166266 -280.38423296 286.39249121 -287.4375 289.1875 C-293.01149897 291.39387459 -297.98448072 292.78516003 -304 293 C-303.23107846 288.56790166 -301.92482105 284.34010866 -300.5625 280.0625 C-300.23668945 279.02706055 -300.23668945 279.02706055 -299.90429688 277.97070312 C-299.47634849 276.61489066 -299.04186477 275.26112079 -298.6003418 273.90966797 C-298.04675143 272.1487148 -297.57782571 270.3617396 -297.1171875 268.57421875 C-296 266 -296 266 -293.94140625 265.046875 C-293.15636719 264.94890625 -292.37132812 264.8509375 -291.5625 264.75 C-288.17180215 264.28077657 -286.97285138 263.98190092 -284 262 C-281.35089339 261.50131072 -278.72763492 261.07300986 -276.0625 260.6875 C-269.41218378 259.63963976 -263.75209225 257.89742651 -257.60546875 255.07421875 C-254.02612194 253.59847606 -250.84684512 253.22193337 -247 253 C-247 252.34 -247 251.68 -247 251 C-245.96359375 250.73445312 -244.9271875 250.46890625 -243.859375 250.1953125 C-242.48952244 249.83877553 -241.11973412 249.4819917 -239.75 249.125 C-239.06808594 248.95097656 -238.38617188 248.77695312 -237.68359375 248.59765625 C-234.23091631 247.69258546 -231.16126515 246.63917452 -228 245 C-225.25 244.875 -225.25 244.875 -223 245 C-223 245.66 -223 246.32 -223 247 C-221.82308594 247.26167969 -220.64617187 247.52335938 -219.43359375 247.79296875 C-215.34803098 248.81503244 -211.82613016 250.40316681 -208.0625 252.3125 C-200.00048847 256.27331542 -191.65901041 258.70011596 -183 261 C-183 261.66 -183 262.32 -183 263 C-169.12565572 264.53118681 -155.32427294 265.21619383 -141.375 265.25 C-140.30865326 265.25749268 -140.30865326 265.25749268 -139.22076416 265.26513672 C-128.20025479 265.328749 -117.32074948 264.78897229 -106.625 261.875 C-102.54142963 260.8893106 -99.1810672 260.85067617 -95 261 C-95 260.34 -95 259.68 -95 259 C-94.19175781 258.74605469 -93.38351562 258.49210937 -92.55078125 258.23046875 C-91.48214844 257.88628906 -90.41351563 257.54210937 -89.3125 257.1875 C-88.25675781 256.85105469 -87.20101562 256.51460938 -86.11328125 256.16796875 C-83.12847314 255.04819758 -80.71239343 253.65272847 -78 252 C-76.28710918 251.33168315 -74.55654096 250.7072057 -72.8125 250.125 C-67.97688162 248.43449926 -63.51652927 246.35438035 -58.99609375 243.953125 C-57 243 -57 243 -55 243 C-55 242.34 -55 241.68 -55 241 C-54.443125 240.773125 -53.88625 240.54625 -53.3125 240.3125 C-50.8073054 239.04516413 -50.8073054 239.04516413 -48.6875 236.5 C-45.5619578 233.59251889 -43.05852089 233.0926787 -39 232 C-38.67 231.01 -38.34 230.02 -38 229 C-36.44140625 227.61328125 -36.44140625 227.61328125 -34.5625 226.3125 C-33.94503906 225.87550781 -33.32757813 225.43851563 -32.69140625 224.98828125 C-31 224 -31 224 -29 224 C-28.67 223.01 -28.34 222.02 -28 221 C-26.5625 219.3125 -26.5625 219.3125 -25 218 C-24.34 218 -23.68 218 -23 218 C-23 217.34 -23 216.68 -23 216 C-22.01 216 -21.02 216 -20 216 C-19.71125 215.360625 -19.4225 214.72125 -19.125 214.0625 C-18 212 -18 212 -16 211 C-15.67 210.01 -15.34 209.02 -15 208 C-13.3540349 206.31288577 -11.68762851 204.6454378 -10 203 C-9.67 202.34 -9.34 201.68 -9 201 C-8.34 201 -7.68 201 -7 201 C-6.896875 200.2575 -6.79375 199.515 -6.6875 198.75 C-5.95066203 195.8026481 -5.05200858 194.21616926 -3 192 C-2.34 192 -1.68 192 -1 192 C-0.5359375 190.576875 -0.5359375 190.576875 -0.0625 189.125 C1 186 1 186 2 184 C2.66 184 3.32 184 4 184 C4.37125 182.63875 4.37125 182.63875 4.75 181.25 C6 178 6 178 7.9375 176.125 C10.87611394 173.09733715 11.67113125 169.98660624 13 166 C13.66 166 14.32 166 15 166 C14.92265625 164.77410156 14.92265625 164.77410156 14.84375 163.5234375 C15.03409747 159.23110209 16.1453166 155.67440498 17.5 151.625 C17.85771484 150.52091797 17.85771484 150.52091797 18.22265625 149.39453125 C18.80730788 147.59380422 19.4025788 145.7965309 20 144 C20.66 144 21.32 144 22 144 C22.12375 142.9275 22.2475 141.855 22.375 140.75 C22.80916104 137.22709328 23.38370469 133.74540623 24 130.25 C25.03624329 124.18720341 25.58674534 118.13356917 26 112 C26.66 112 27.32 112 28 112 C27.89529511 88.44827435 27.89529511 88.44827435 24.50634766 65.22460938 C23.88527588 62.49596616 23.32460336 59.75685164 22.76171875 57.015625 C21.49090571 50.9160385 21.49090571 50.9160385 20.18359375 44.82421875 C20.00368896 43.98979248 19.82378418 43.15536621 19.63842773 42.2956543 C19.08078018 39.98000696 19.08078018 39.98000696 17.92602539 37.94848633 C17 36 17 36 17 32 C16.34 32 15.68 32 15 32 C15 30.68 15 29.36 15 28 C14.34 28 13.68 28 13 28 C12.71125 27.21625 12.4225 26.4325 12.125 25.625 C11.15087746 22.90328368 11.15087746 22.90328368 9 21 C8.855625 20.21625 8.71125 19.4325 8.5625 18.625 C7.92805681 15.66426513 6.8429495 14.35897537 5 12 C4.31867549 10.33927151 3.65257873 8.672233 3 7 C2.195625 5.6696875 2.195625 5.6696875 1.375 4.3125 C0 2 0 2 0 0 Z " fill="#C6F2D6" transform="translate(375,128)"/>
<path d="M0 0 C1.1127832 -0.03577148 1.1127832 -0.03577148 2.24804688 -0.07226562 C6.11158096 -0.06194452 7.98644459 0.24701462 11.21875 2.5078125 C14.08324813 6.45154056 15.69713353 10.44750313 17.375 15 C18.05930319 16.79629586 18.74551297 18.59186652 19.43359375 20.38671875 C19.76858887 21.26634277 20.10358398 22.1459668 20.44873047 23.05224609 C22.23859036 27.59628052 24.3206911 32.00670243 26.40625 36.421875 C27.66227716 40.24704863 28.26151064 43.61562225 27.4375 47.5625 C25.98067734 50.32947586 24.11099952 52.5868468 22.0625 54.9375 C21.30066406 55.85982422 21.30066406 55.85982422 20.5234375 56.80078125 C18.57560023 59.14331187 16.59220181 61.40779819 14.4375 63.5625 C14.64676991 69.02967632 16.06728176 72.07632291 19.4375 76.3125 C20.65566406 77.85550781 20.65566406 77.85550781 21.8984375 79.4296875 C22.31963867 79.94885742 22.74083984 80.46802734 23.17480469 81.00292969 C24.39648457 82.51184135 25.59326683 84.04080641 26.7890625 85.5703125 C30.98734668 90.86505578 35.2488032 95.25698564 40.4375 99.5625 C40.4375 100.2225 40.4375 100.8825 40.4375 101.5625 C42.0875 102.2225 43.7375 102.8825 45.4375 103.5625 C45.4375 104.2225 45.4375 104.8825 45.4375 105.5625 C46.17355469 105.83191406 46.90960938 106.10132813 47.66796875 106.37890625 C50.33592073 107.51908883 52.40180608 108.81290638 54.75 110.5 C58.87004703 113.32223222 62.71906726 114.96303128 67.4375 116.5625 C68.4275 117.1503125 68.4275 117.1503125 69.4375 117.75 C72.90180868 119.1573754 75.87760436 119.62853046 79.4375 118.5625 C82.56223486 115.90964038 84.95501113 112.8088316 87.4375 109.5625 C88.41208337 108.43352719 89.39047887 107.30781715 90.375 106.1875 C92.58717445 103.67591216 92.58717445 103.67591216 93.4375 100.5625 C96.71783809 98.25411394 99.51354638 98.04424197 103.4375 98.5625 C105.7819382 99.67482469 107.98147893 100.9383888 110.2109375 102.265625 C113.17145425 103.98999616 116.2792514 105.24177786 119.4375 106.5625 C121.48073929 107.54820333 123.50535403 108.56522344 125.52734375 109.59375 C127.19446925 110.43924514 128.87731021 111.2536089 130.5625 112.0625 C134.0154696 113.86404936 137.6613023 115.7863023 140.4375 118.5625 C141.11137317 125.81959571 140.19016875 131.86210144 137.4375 138.5625 C137.045625 139.573125 136.65375 140.58375 136.25 141.625 C135.981875 142.264375 135.71375 142.90375 135.4375 143.5625 C134.7775 143.5625 134.1175 143.5625 133.4375 143.5625 C133.21191406 144.1503125 132.98632812 144.738125 132.75390625 145.34375 C128.85539754 151.91453026 118.49615203 156.08531268 111.4375 158.5625 C93.51566305 162.77600756 73.48521257 155.44196813 57.4375 147.5625 C56.73850586 147.22379883 56.03951172 146.88509766 55.31933594 146.53613281 C40.14690823 139.11640729 27.73276877 130.19478859 15.4375 118.5625 C14.62796875 117.80582031 13.8184375 117.04914063 12.984375 116.26953125 C6.52339115 110.04219933 1.06166719 103.25441847 -4.35644531 96.13134766 C-5.90528799 94.11659806 -7.52015252 92.1577705 -9.125 90.1875 C-12.27569345 86.13117245 -15.01876214 81.84426777 -17.75 77.5 C-18.16644775 76.83887207 -18.58289551 76.17774414 -19.01196289 75.49658203 C-28.12381194 60.77084081 -31.74340524 45.93535443 -29.5625 28.5625 C-26.97205557 17.79133325 -20.46966368 9.31982945 -11.93359375 2.4453125 C-7.73114941 0.09817673 -4.72102439 -0.07009381 0 0 Z " fill="#FBFCFC" transform="translate(178.5625,144.4375)"/>
<path d="M0 0 C2.5 1.3125 2.5 1.3125 5 3 C5 3.99 5 4.98 5 6 C5.598125 6.061875 6.19625 6.12375 6.8125 6.1875 C9.95302542 7.35398087 10.58160876 9.02813263 12 12 C12.6875 14.8125 12.6875 14.8125 13 17 C13.66 17 14.32 17 15 17 C17 20 17 20 17 24 C17.66 24 18.32 24 19 24 C20.02539062 26.58789062 20.02539062 26.58789062 21.05078125 29.17578125 C21.90699283 31.05735194 21.90699283 31.05735194 23.4375 32.38671875 C25.5102114 34.52679327 26.47342681 36.78747612 27.6875 39.5 C28.34298828 40.93859375 28.34298828 40.93859375 29.01171875 42.40625 C30 45 30 45 30 48 C30.66 48 31.32 48 32 48 C33.32 53.28 34.64 58.56 36 64 C36.66 64 37.32 64 38 64 C38.495 67.96 38.495 67.96 39 72 C38.05125 72.0825 37.1025 72.165 36.125 72.25 C35.09375 72.4975 34.0625 72.745 33 73 C32.34 74.32 31.68 75.64 31 77 C30.505 71.06 30.505 71.06 30 65 C28.77871363 65.99860487 28.77871363 65.99860487 28.89320374 67.98239136 C28.90145676 68.85300201 28.90970978 69.72361267 28.91821289 70.62060547 C28.9247438 71.60608368 28.93127472 72.59156189 28.93800354 73.60690308 C28.94943893 74.68279694 28.96087433 75.7586908 28.97265625 76.8671875 C28.98531765 79.13801923 28.99767746 81.40885265 29.00976562 83.6796875 C29.03445334 87.26502756 29.06226778 90.85027959 29.09594727 94.43554688 C29.12641374 97.89193236 29.14401792 101.34820934 29.16015625 104.8046875 C29.17361588 105.86033905 29.1870755 106.9159906 29.20094299 108.00363159 C29.22378726 114.87972253 28.46701612 121.28260765 27 128 C26.34 128 25.68 128 25 128 C25.33 122.72 25.66 117.44 26 112 C26.66 112 27.32 112 28 112 C27.89529511 88.44827435 27.89529511 88.44827435 24.50634766 65.22460938 C23.88527588 62.49596616 23.32460336 59.75685164 22.76171875 57.015625 C21.49090571 50.9160385 21.49090571 50.9160385 20.18359375 44.82421875 C20.00368896 43.98979248 19.82378418 43.15536621 19.63842773 42.2956543 C19.08078018 39.98000696 19.08078018 39.98000696 17.92602539 37.94848633 C17 36 17 36 17 32 C16.34 32 15.68 32 15 32 C15 30.68 15 29.36 15 28 C14.34 28 13.68 28 13 28 C12.566875 26.824375 12.566875 26.824375 12.125 25.625 C11.15087746 22.90328368 11.15087746 22.90328368 9 21 C8.855625 20.21625 8.71125 19.4325 8.5625 18.625 C7.92805681 15.66426513 6.8429495 14.35897537 5 12 C4.31867549 10.33927151 3.65257873 8.672233 3 7 C2.46375 6.113125 1.9275 5.22625 1.375 4.3125 C0 2 0 2 0 0 Z " fill="#CCF1D9" transform="translate(375,128)"/>
<path d="M0 0 C0 0.33 0 0.66 0 1 C-9.9 1.33 -19.8 1.66 -30 2 C-29.34 2.66 -28.68 3.32 -28 4 C-36.415 4.495 -36.415 4.495 -45 5 C-42.525 5.99 -42.525 5.99 -40 7 C-40 7.99 -40 8.98 -40 10 C-42.64 10 -45.28 10 -48 10 C-48 9.01 -48 8.02 -48 7 C-53.38890722 7.26075357 -57.14078955 7.86735412 -61.875 10.5 C-67.16498203 13.38620089 -72.04088803 13.87537979 -78 14 C-74.64108647 11.17144123 -70.98838203 9.57809339 -66.9375 8 C-66.26775146 7.73799805 -65.59800293 7.47599609 -64.90795898 7.20605469 C-43.71549687 -0.93728642 -22.32044496 -0.26397906 0 0 Z " fill="#31CB6B" transform="translate(248,80)"/>
<path d="M0 0 C0.33 0 0.66 0 1 0 C2.67576215 9.92537144 3.40219357 19.5555224 3.375 29.625 C3.37512085 30.31944214 3.3752417 31.01388428 3.37536621 31.72937012 C3.33551632 47.89267178 0.77809026 62.87861485 -5 78 C-5.33 78 -5.66 78 -6 78 C-6.1953125 71.9453125 -6.1953125 71.9453125 -6 70 C-5.01 69.01 -5.01 69.01 -4 68 C-3.57263573 65.80434148 -3.57263573 65.80434148 -3.4375 63.3125 C-2.95767014 57.47036096 -2.21723132 51.73837625 -1 46 C-1.66 46 -2.32 46 -3 46 C-3.25 38.375 -3.25 38.375 -1 35 C-0.67 35 -0.34 35 0 35 C0 23.45 0 11.9 0 0 Z " fill="#43CB78" transform="translate(373,194)"/>
<path d="M0 0 C5.28 0.66 10.56 1.32 16 2 C16 2.99 16 3.98 16 5 C16.9590625 5.185625 16.9590625 5.185625 17.9375 5.375 C18.9584375 5.684375 18.9584375 5.684375 20 6 C20.495 6.99 20.495 6.99 21 8 C17.87949413 7.05659125 15.244245 6.15875925 12.5 4.375 C8.78866026 2.33376314 5.6878831 2.64465619 1.625 3.5 C1.08875 3.665 0.5525 3.83 0 4 C-0.0928125 5.0828125 -0.0928125 5.0828125 -0.1875 6.1875 C-1.05263166 9.18218652 -2.13193638 10.41837561 -4.421875 12.46484375 C-6.12520828 14.05489269 -6.12520828 14.05489269 -7.828125 16.31640625 C-12.80095883 22.57160471 -12.80095883 22.57160471 -16.01171875 23.71875 C-20.56824451 23.93359601 -24.14028552 22.25790963 -28.0546875 20.078125 C-29.90000266 19.05542021 -31.73517445 18.23195282 -33.6875 17.4375 C-36.64900782 16.15231736 -39.31627346 14.78915103 -42 13 C-42 12.67 -42 12.34 -42 12 C-39.69 12.33 -37.38 12.66 -35 13 C-35 13.66 -35 14.32 -35 15 C-33.68 15 -32.36 15 -31 15 C-31 15.66 -31 16.32 -31 17 C-30.05125 16.979375 -29.1025 16.95875 -28.125 16.9375 C-25 17 -25 17 -23 18 C-23 18.66 -23 19.32 -23 20 C-19.6675213 20.33417929 -19.6675213 20.33417929 -16 20 C-13.74934898 18.08333079 -13.74934898 18.08333079 -12 16 C-11.01 16 -10.02 16 -9 16 C-8.34 13.36 -7.68 10.72 -7 8 C-6.01 8.33 -5.02 8.66 -4 9 C-3.896875 8.21625 -3.79375 7.4325 -3.6875 6.625 C-3 4 -3 4 0 2 C0 1.34 0 0.68 0 0 Z " fill="#3CC674" transform="translate(272,241)"/>
<path d="M0 0 C0.33 0 0.66 0 1 0 C1.28071566 7.57932288 0.02068037 14.35916736 -2.02294922 21.64892578 C-3.08690925 25.91481642 -3.29043629 29.92401277 -3.265625 34.3046875 C-3.26753845 35.0687088 -3.2694519 35.8327301 -3.27142334 36.61990356 C-3.27277497 38.22495862 -3.26915058 39.83002499 -3.26074219 41.43505859 C-3.25005763 43.86190971 -3.26065696 46.2880157 -3.2734375 48.71484375 C-3.27915215 56.01282569 -3.1621914 62.9184213 -1.4453125 70.05419922 C-0.86243896 72.60107536 -0.80057651 75.02017774 -0.875 77.625 C-0.89304687 78.46289062 -0.91109375 79.30078125 -0.9296875 80.1640625 C-0.96449219 81.07285156 -0.96449219 81.07285156 -1 82 C-8.44607378 74.55392622 -6.36264425 55.84555762 -6.375 46.0625 C-6.34547771 30.24473251 -4.80347426 15.15990103 0 0 Z " fill="#44C276" transform="translate(95,178)"/>
<path d="M0 0 C-1.32 0.33 -2.64 0.66 -4 1 C-4 1.66 -4 2.32 -4 3 C-5.54287884 4.04174694 -7.13800326 5.0062759 -8.75 5.9375 C-18.98086034 12.24256509 -27.82099549 21.03814543 -35.625 30.125 C-37.67457114 32.50843793 -39.74969583 34.80424866 -42 37 C-40.63910923 29.74191588 -36.65640786 25.40691179 -31.33984375 20.453125 C-29.74690474 18.92504511 -29.74690474 18.92504511 -29 16 C-28.030625 15.54625 -27.06125 15.0925 -26.0625 14.625 C-22.78806761 13.33529052 -22.78806761 13.33529052 -22.125 10.4375 C-21 8 -21 8 -19.109375 7.234375 C-17.09133213 6.74044842 -15.04566248 6.36294012 -13 6 C-13 5.34 -13 4.68 -13 4 C-11.59248779 3.13083113 -10.1735479 2.28014851 -8.75 1.4375 C-7.96109375 0.96183594 -7.1721875 0.48617187 -6.359375 -0.00390625 C-3.69155375 -1.13022151 -2.65498232 -1.0169313 0 0 Z " fill="#D9FAE8" transform="translate(160,99)"/>
<path d="M0 0 C1.2965057 3.88951711 0.50385309 6.13387817 -0.375 10.125 C-2.73503535 20.91058213 -3.23771039 31.41068648 -3.25 42.4375 C-3.25133942 43.14632324 -3.25267883 43.85514648 -3.25405884 44.58544922 C-3.24862565 57.84992727 -2.72967343 70.74568232 2.38476562 83.171875 C3.27150846 85.80676799 3.20601494 88.25313412 3 91 C2.896875 90.360625 2.79375 89.72125 2.6875 89.0625 C2.460625 88.381875 2.23375 87.70125 2 87 C1.01 86.67 0.02 86.34 -1 86 C-1.13277344 85.31292969 -1.26554687 84.62585938 -1.40234375 83.91796875 C-1.57894531 83.01691406 -1.75554687 82.11585938 -1.9375 81.1875 C-2.11152344 80.29417969 -2.28554687 79.40085937 -2.46484375 78.48046875 C-2.97741153 75.88602829 -2.97741153 75.88602829 -4 73 C-5.19270671 67.52336086 -5.16150091 62.13113437 -5.16796875 56.5546875 C-5.17129715 55.54842316 -5.17462555 54.54215881 -5.17805481 53.50540161 C-5.18310632 51.37893122 -5.18546368 49.25245295 -5.18530273 47.12597656 C-5.18747853 43.90676439 -5.20562388 40.68790115 -5.22460938 37.46875 C-5.28801255 14.88098588 -5.28801255 14.88098588 -3 8 C-2.34 7.67 -1.68 7.34 -1 7 C-1.20625 6.401875 -1.4125 5.80375 -1.625 5.1875 C-2 3 -2 3 0 0 Z " fill="#C2F4D5" transform="translate(93,181)"/>
<path d="M0 0 C0.33 0 0.66 0 1 0 C0.979375 0.94875 0.95875 1.8975 0.9375 2.875 C0.77448174 5.90666283 0.77448174 5.90666283 2 8 C0 10 0 10 -2.5 11.8125 C-5.14166676 14.12395842 -5.98882316 15.69069397 -7 19 C-7.66 19 -8.32 19 -9 19 C-9.2475 19.598125 -9.495 20.19625 -9.75 20.8125 C-11.18072525 23.31626919 -12.5691582 24.48072388 -15 26 C-15.66 26 -16.32 26 -17 26 C-17.33 26.99 -17.66 27.98 -18 29 C-19 30 -20 31 -21 32 C-21.28875 32.66 -21.5775 33.32 -21.875 34 C-23.38466664 36.68385181 -25.3700253 37.46050262 -28 39 C-28.495 39.70125 -28.99 40.4025 -29.5 41.125 C-31 43 -31 43 -33.6875 43.75 C-34.450625 43.8325 -35.21375 43.915 -36 44 C-35.67 43.34 -35.34 42.68 -35 42 C-34.34 42 -33.68 42 -33 42 C-33 41.34 -33 40.68 -33 40 C-31.390625 38.44921875 -31.390625 38.44921875 -29.25 36.6875 C-26.08996504 34.00676487 -23.49457996 31.32610662 -21 28 C-19.375 26.1875 -19.375 26.1875 -18 25 C-17.34 25 -16.68 25 -16 25 C-15.5359375 24.071875 -15.5359375 24.071875 -15.0625 23.125 C-14.375 21.75 -13.6875 20.375 -13 19 C-12.34 19 -11.68 19 -11 19 C-10.731875 18.443125 -10.46375 17.88625 -10.1875 17.3125 C-8.89761794 14.80062441 -7.4585108 12.41796489 -6 10 C-5.48179687 9.11699219 -4.96359375 8.23398437 -4.4296875 7.32421875 C-3.66011719 6.01904297 -3.66011719 6.01904297 -2.875 4.6875 C-2.35679687 3.80449219 -1.83859375 2.92148437 -1.3046875 2.01171875 C-0.87414062 1.34785156 -0.44359375 0.68398438 0 0 Z " fill="#F2FCF5" transform="translate(358,292)"/>
<path d="M0 0 C0.66 0 1.32 0 2 0 C4.76745207 10.14732424 5.21090737 20.04978469 5.24023438 30.52685547 C5.24988528 32.60035188 5.28097498 34.67283081 5.3125 36.74609375 C5.38481229 46.19125623 4.20065101 54.80406694 2 64 C1.34 64 0.68 64 0 64 C0.14109986 61.89551062 0.28804175 59.7914123 0.4375 57.6875 C0.51871094 56.51574219 0.59992188 55.34398437 0.68359375 54.13671875 C1 51 1 51 2 48 C2.24291479 42.94288154 2.19256872 37.87502798 2.1875 32.8125 C2.1882251 32.08812744 2.1889502 31.36375488 2.18969727 30.61743164 C2.18854823 20.29334886 1.87542535 10.18088047 0 0 Z " fill="#D0FCDF" transform="translate(373,192)"/>
<path d="M0 0 C0.66 0.33 1.32 0.66 2 1 C0.66666667 5 -0.66666667 9 -2 13 C-2.23008406 16.39170971 -2.18517052 19.78879142 -2.1875 23.1875 C-2.19974609 24.10853516 -2.21199219 25.02957031 -2.22460938 25.97851562 C-2.23384333 30.31539863 -2.08160481 34.23118188 -0.92578125 38.42578125 C-0.03617499 41.86033708 -0.00004821 42.81547081 -1 46 C-1.64995297 44.58521865 -2.29478722 43.16808513 -2.9375 41.75 C-3.29714844 40.96109375 -3.65679687 40.1721875 -4.02734375 39.359375 C-5.48911707 35.81354735 -6.12669557 32.72381555 -6.09765625 28.890625 C-6.09443359 28.13652344 -6.09121094 27.38242188 -6.08789062 26.60546875 C-6.07951172 25.82816406 -6.07113281 25.05085938 -6.0625 24.25 C-6.05798828 23.45722656 -6.05347656 22.66445312 -6.04882812 21.84765625 C-6.03708565 19.89840492 -6.01915146 17.94919262 -6 16 C-5.34 16 -4.68 16 -4 16 C-4.66 13.69 -5.32 11.38 -6 9 C-6.66 9 -7.32 9 -8 9 C-8 7.68 -8 6.36 -8 5 C-6.35 5 -4.7 5 -3 5 C-2.67 5.66 -2.34 6.32 -2 7 C-1.34 4.69 -0.68 2.38 0 0 Z " fill="#35C770" transform="translate(152,160)"/>
<path d="M0 0 C0.33 0.99 0.66 1.98 1 3 C2.80252869 3.70194993 2.80252869 3.70194993 5 4 C5.9075 4.185625 6.815 4.37125 7.75 4.5625 C8.4925 4.706875 9.235 4.85125 10 5 C10 5.66 10 6.32 10 7 C11.98 7.66 13.96 8.32 16 9 C16 9.33 16 9.66 16 10 C17.258125 10.0825 18.51625 10.165 19.8125 10.25 C23.77393359 10.72176442 23.77393359 10.72176442 25.625 13 C26.305625 13.99 26.305625 13.99 27 15 C30.10197397 15.80946422 30.10197397 15.80946422 33 16 C33 16.66 33 17.32 33 18 C19.68854616 16.25719115 7.07317012 9.38211341 -4 2 C-9.74714652 1.86397286 -15.49840326 3.49956453 -21 5 C-21 4.34 -21 3.68 -21 3 C-14.18180129 -1.54546581 -7.78759495 -1.18090579 0 0 Z " fill="#4EC67D" transform="translate(159,343)"/>
<path d="M0 0 C-2.44615813 1.4765542 -4.89484908 2.94857042 -7.34765625 4.4140625 C-8.85983789 5.31825358 -10.36949052 6.22678541 -11.87109375 7.1484375 C-19.48992182 11.71608023 -27.9496089 14.38929828 -36.3125 17.25 C-37.08956299 17.52054199 -37.86662598 17.79108398 -38.66723633 18.06982422 C-42.55641018 19.37560456 -45.83725665 20.36559023 -50 20 C-48 17 -48 17 -45.828125 16.41015625 C-44.97734375 16.29542969 -44.1265625 16.18070312 -43.25 16.0625 C-38.52312258 15.24728491 -35.66715125 14.08812737 -32 11 C-32 10.34 -32 9.68 -32 9 C-30.865625 9.04125 -29.73125 9.0825 -28.5625 9.125 C-23.85616438 9.14183841 -19.53683996 8.17621777 -15 7 C-15 6.34 -15 5.68 -15 5 C-14.236875 4.731875 -13.47375 4.46375 -12.6875 4.1875 C-10.00893218 3.20735832 -10.00893218 3.20735832 -8.5 1.4375 C-5.97183727 -0.98532262 -3.12543364 -1.56271682 0 0 Z " fill="#3DC773" transform="translate(313,343)"/>
<path d="M0 0 C1.33332095 2.6666419 0.67102033 4.16680303 0 7 C-0.66 7 -1.32 7 -2 7 C-2.12375 7.78375 -2.2475 8.5675 -2.375 9.375 C-3 12 -3 12 -5 14 C-4.835 14.804375 -4.67 15.60875 -4.5 16.4375 C-4 19 -4 19 -6 22 C-6.38499891 23.65549531 -6.72793135 25.3222433 -7 27 C-7.66 26.34 -8.32 25.68 -9 25 C-11.76894919 28.23044072 -13.46635209 31.05633394 -15 35 C-15.99 35.495 -15.99 35.495 -17 36 C-16.59879494 34.12163086 -16.17823556 32.24739163 -15.75 30.375 C-15.51796875 29.33085937 -15.2859375 28.28671875 -15.046875 27.2109375 C-13.87194096 23.60722191 -12.15529987 21.10745637 -10 18 C-8.77522421 15.63473407 -7.58621895 13.27569353 -6.4375 10.875 C-4.58089948 6.99713372 -2.73933129 3.34714644 0 0 Z " fill="#38CF76" transform="translate(113,142)"/>
<path d="M0 0 C1.1127832 -0.03577148 1.1127832 -0.03577148 2.24804688 -0.07226562 C6.46315664 -0.06100531 7.99794587 0.20291787 11.37890625 2.96875 C14.63312751 7.06894529 14.63312751 7.06894529 15.4375 9.5625 C15.0625 11.8125 15.0625 11.8125 14.4375 13.5625 C12.4575 10.0975 12.4575 10.0975 10.4375 6.5625 C9.7775 6.5625 9.1175 6.5625 8.4375 6.5625 C7.880625 5.7890625 7.880625 5.7890625 7.3125 5 C5.35675258 3.16544728 5.35675258 3.16544728 1.875 3.875 C1.18277344 3.99359375 0.49054688 4.1121875 -0.22265625 4.234375 C-4.3186902 4.80877709 -8.43518359 4.63861854 -12.5625 4.5625 C-12.5625 5.8825 -12.5625 7.2025 -12.5625 8.5625 C-14.2125 8.8925 -15.8625 9.2225 -17.5625 9.5625 C-13.67429453 1.78608906 -8.16061434 -0.12116196 0 0 Z " fill="#CBF8DF" transform="translate(178.5625,144.4375)"/>
<path d="M0 0 C2.64 0 5.28 0 8 0 C8 0.66 8 1.32 8 2 C26.66203348 2.835814 45.32795942 3.4454732 64 4 C64 4.33 64 4.66 64 5 C43.68634624 7.49465923 19.40927116 8.31824978 0 1 C0 0.67 0 0.34 0 0 Z " fill="#4EC47E" transform="translate(192,361)"/>
<path d="M0 0 C0.33 0 0.66 0 1 0 C1.0251577 4.42504534 1.04307066 8.85005022 1.05493164 13.27514648 C1.05988838 14.77320076 1.06665574 16.27125039 1.07543945 17.76928711 C1.13323303 27.89676176 0.81950418 37.90263673 0 48 C-0.66 48 -1.32 48 -2 48 C-2.12117188 49.22976563 -2.24234375 50.45953125 -2.3671875 51.7265625 C-2.53610295 53.3594118 -2.70539364 54.99222232 -2.875 56.625 C-2.95363281 57.43324219 -3.03226562 58.24148438 -3.11328125 59.07421875 C-3.59531404 63.63499049 -4.3384118 67.68545585 -6 72 C-6.66 72 -7.32 72 -8 72 C-7.67 69.36 -7.34 66.72 -7 64 C-6.34 64 -5.68 64 -5 64 C-4.95101563 63.13117188 -4.90203125 62.26234375 -4.8515625 61.3671875 C-4.77679688 60.21476562 -4.70203125 59.06234375 -4.625 57.875 C-4.52058594 56.16957031 -4.52058594 56.16957031 -4.4140625 54.4296875 C-4 51 -4 51 -3.01098633 48.18261719 C-1.96750426 44.89770236 -1.61498157 42.08264984 -1.41015625 38.6484375 C-1.33684082 37.42350586 -1.26352539 36.19857422 -1.18798828 34.93652344 C-0.86474514 28.16772813 -0.63282944 21.39854647 -0.4375 14.625 C-0.39414145 13.19530455 -0.35052285 11.76561697 -0.30664062 10.3359375 C-0.20144498 6.89070994 -0.09971307 3.44539113 0 0 Z " fill="#D9F4E4" transform="translate(418,224)"/>
<path d="M0 0 C4.14189113 1.47924683 6.16160634 4.1528596 8 8 C9.49172312 12.29068065 10.75774634 16.63169955 12 21 C12.72804211 23.96127597 12.72804211 23.96127597 14.48828125 25.42578125 C18.08329488 29.16942594 18.11616877 35.59934735 18.125 40.5625 C18.08375 41.696875 18.0425 42.83125 18 44 C17.67 44 17.34 44 17 44 C16.814375 42.845 16.62875 41.69 16.4375 40.5 C15.25888709 35.1586266 13.06668917 30.34328486 10.82128906 25.38793945 C8.26988455 19.72659757 6.04808476 13.98527072 3.95410156 8.14038086 C2.86165996 5.12692153 1.79056891 2.68585336 0 0 Z " fill="#4AC47D" transform="translate(189,147)"/>
<path d="M0 0 C5.19644079 1.59890486 10.06612142 3.74138003 15 6 C13.7874289 9.63771331 12.98156536 9.84268519 9.6875 11.5625 C8.90761719 11.97628906 8.12773437 12.39007813 7.32421875 12.81640625 C5.22092331 13.88749619 3.11402022 14.95024625 1 16 C0.67 14.68 0.34 13.36 0 12 C1.1446875 11.319375 1.1446875 11.319375 2.3125 10.625 C4.23632814 9.46175508 6.12941224 8.2470585 8 7 C5.525 6.01 5.525 6.01 3 5 C3 4.34 3 3.68 3 3 C2.01 3 1.02 3 0 3 C0 2.01 0 1.02 0 0 Z " fill="#2BD066" transform="translate(224,286)"/>
<path d="M0 0 C4.84714725 1.86734361 9.58292469 3.71657154 14.125 6.25 C17.44293848 7.90563127 20.30059516 8.81977841 24.03515625 8.671875 C28.14848681 7.26532857 30.55447987 3.42372818 33 0 C34.0859375 3.7421875 34.0859375 3.7421875 33.3125 6.0625 C31.65678101 8.5066566 30.6588155 9.63650487 28 11 C22.71650007 11.65414761 17.89331609 11.20199224 13 9 C12.67 8.34 12.34 7.68 12 7 C10.11235097 6.31527335 10.11235097 6.31527335 7.9375 5.875 C7.20402344 5.70742188 6.47054687 5.53984375 5.71484375 5.3671875 C5.14894531 5.24601562 4.58304688 5.12484375 4 5 C4 4.34 4 3.68 4 3 C2.68 3 1.36 3 0 3 C0 2.01 0 1.02 0 0 Z " fill="#C3F4D8" transform="translate(232,255)"/>
<path d="M0 0 C2.5 1.3125 2.5 1.3125 5 3 C5 3.99 5 4.98 5 6 C5.598125 6.061875 6.19625 6.12375 6.8125 6.1875 C9.91095345 7.33835414 10.55317057 9.10634113 12 12 C12.33 12.99 12.66 13.98 13 15 C12.34 15 11.68 15 11 15 C11.66 17.97 12.32 20.94 13 24 C11.0625 22.8125 11.0625 22.8125 9 21 C8.61781233 19.34385343 8.28604898 17.67542976 8 16 C7.02727325 14.64664105 6.0260734 13.31337396 5 12 C4.31867549 10.33927151 3.65257873 8.672233 3 7 C2.46375 6.113125 1.9275 5.22625 1.375 4.3125 C0 2 0 2 0 0 Z " fill="#E0F1E7" transform="translate(375,128)"/>
<path d="M0 0 C0.66 0.33 1.32 0.66 2 1 C0.33784732 2.33895632 -1.32963607 3.67130142 -3 5 C-3.598125 5.556875 -4.19625 6.11375 -4.8125 6.6875 C-8.1038157 8.66228942 -11.19307852 8.68275654 -15 9 C-15.33 9.99 -15.66 10.98 -16 12 C-21.13691161 13.99186369 -25.52450293 14.1921227 -31 14 C-28.60099826 11.60099826 -26.85497469 11.1836208 -23.625 10.1875 C-16.3242347 7.83298123 -8.79831523 5.39233915 -2.27734375 1.28515625 C-1.52582031 0.86105469 -0.77429688 0.43695313 0 0 Z " fill="#C2F6D7" transform="translate(303,348)"/>
<path d="M0 0 C2.56336254 0.11446272 5.12513445 0.24119501 7.6875 0.375 C8.40873047 0.4059375 9.12996094 0.436875 9.87304688 0.46875 C14.01010225 0.69543797 17.17875651 1.27774941 21 3 C23.32597511 3.3813074 25.65912158 3.72460254 28 4 C28 4.66 28 5.32 28 6 C30.97 6.495 30.97 6.495 34 7 C34 7.33 34 7.66 34 8 C18.57142857 6.28571429 18.57142857 6.28571429 14 4 C10.91815246 3.76360829 7.83760526 3.61758293 4.75 3.4765625 C3.8425 3.31929688 2.935 3.16203125 2 3 C1.34 2.01 0.68 1.02 0 0 Z " fill="#44C87A" transform="translate(248,81)"/>
<path d="M0 0 C2.2505768 4.50115359 2.2505768 4.50115359 2.25878906 8.04321289 C2.26509338 8.82825699 2.27139771 9.61330109 2.27789307 10.4221344 C2.27182037 11.68464272 2.27182037 11.68464272 2.265625 12.97265625 C2.26753845 13.85094589 2.2694519 14.72923553 2.27142334 15.63414001 C2.27278352 17.49429612 2.26909875 19.35446177 2.26074219 21.21459961 C2.25012992 24.02805627 2.2605964 26.84086123 2.2734375 29.65429688 C2.27940683 38.6038105 2.24157048 47.26732138 0 56 C-0.66 56 -1.32 56 -2 56 C-1.67 50.72 -1.34 45.44 -1 40 C-0.34 40 0.32 40 1 40 C0.67 26.8 0.34 13.6 0 0 Z " fill="#D9F5E5" transform="translate(402,200)"/>
<path d="M0 0 C2.44005212 7.55169414 -0.55322337 15.61628397 -4 22.375 C-4.7734375 23.77878906 -4.7734375 23.77878906 -5.5625 25.2109375 C-7.10316285 28.01442643 -7.10316285 28.01442643 -8.0625 31.2890625 C-9 34 -9 34 -11 35 C-3.69787234 7.39574468 -3.69787234 7.39574468 0 0 Z " fill="#53C881" transform="translate(111,320)"/>
<path d="M0 0 C1.8125 0.125 1.8125 0.125 4 1 C5.03291676 2.98320018 6.0337499 4.98347806 7 7 C7.99 7.33 8.98 7.66 10 8 C10 8.66 10 9.32 10 10 C10.639375 10.2475 11.27875 10.495 11.9375 10.75 C14 12 14 12 14.75 14.125 C14.87375 15.053125 14.87375 15.053125 15 16 C16.32 16.33 17.64 16.66 19 17 C19 17.66 19 18.32 19 19 C19.763125 19.28875 20.52625 19.5775 21.3125 19.875 C24 21 24 21 27 23 C26.67 23.99 26.34 24.98 26 26 C23.5 24.625 23.5 24.625 21 23 C21 22.34 21 21.68 21 21 C19.35 20.34 17.7 19.68 16 19 C16 18.34 16 17.68 16 17 C15.41089844 16.73574219 14.82179687 16.47148437 14.21484375 16.19921875 C8.07877524 12.87686772 3.76919067 6.71089496 0 1 C0 0.67 0 0.34 0 0 Z " fill="#42C47A" transform="translate(203,227)"/>
<path d="M0 0 C3.90156658 3.03455179 6.79575992 5.46906205 9 10 C9 10.66 9 11.32 9 12 C9.639375 12.2475 10.27875 12.495 10.9375 12.75 C13 14 13 14 13.75 16.125 C13.87375 17.053125 13.87375 17.053125 14 18 C12.35 18 10.7 18 9 18 C8.34 16.35 7.68 14.7 7 13 C6.34 13.66 5.68 14.32 5 15 C4.01 15 3.02 15 2 15 C2 13.68 2 12.36 2 11 C2.66 10.67 3.32 10.34 4 10 C3.72382467 8.05925139 3.72382467 8.05925139 3 6 C2.01 5.34 1.02 4.68 0 4 C0 2.68 0 1.36 0 0 Z " fill="#43CB73" transform="translate(338,126)"/>
<path d="M0 0 C3.31189222 3.97427066 6.23664832 8.17258516 9.18359375 12.41796875 C11.70840583 16.0070027 14.33936693 19.51096469 17 23 C16.34 23.33 15.68 23.66 15 24 C15 23.34 15 22.68 15 22 C14.195625 21.731875 13.39125 21.46375 12.5625 21.1875 C11.716875 20.795625 10.87125 20.40375 10 20 C9.67 19.01 9.34 18.02 9 17 C8.34 17 7.68 17 7 17 C6.67 15.35 6.34 13.7 6 12 C3 10.66666667 3 10.66666667 0 12 C0 8.04 0 4.08 0 0 Z " fill="#C0F6D9" transform="translate(192,212)"/>
<path d="M0 0 C0 3 0 3 -1.5 5.125 C-5.00353672 7.75265254 -7.65685518 7.64974639 -12 8 C-12.99 8.495 -12.99 8.495 -14 9 C-14 9.66 -14 10.32 -14 11 C-15.98 11.33 -17.96 11.66 -20 12 C-20.33 13.32 -20.66 14.64 -21 16 C-22.65 16 -24.3 16 -26 16 C-22.89973691 12.72257902 -20.02901106 10.06895163 -16 8 C-15.34 8 -14.68 8 -14 8 C-14 7.34 -14 6.68 -14 6 C-12.04414675 4.99515796 -10.08523763 3.99626195 -8.125 3 C-7.03445312 2.443125 -5.94390625 1.88625 -4.8203125 1.3125 C-2 0 -2 0 0 0 Z " fill="#4BC578" transform="translate(170,94)"/>
<path d="M0 0 C14.19 0 28.38 0 43 0 C36.91739511 4.05506992 30.41226888 3.18607336 23.37646484 3.18530273 C21.14010476 3.18748526 18.90424133 3.20564121 16.66796875 3.22460938 C15.23958501 3.2275444 13.81119894 3.22952846 12.3828125 3.23046875 C11.08746582 3.23457764 9.79211914 3.23868652 8.45751953 3.24291992 C5.17170493 3.01206372 2.94281551 2.422772 0 1 C0 0.67 0 0.34 0 0 Z " fill="#D7FBE3" transform="translate(211,366)"/>
<path d="M0 0 C0.33 0 0.66 0 1 0 C1.16236745 2.58585205 1.28095486 5.16151954 1.375 7.75 C1.42527344 8.47960937 1.47554688 9.20921875 1.52734375 9.9609375 C1.5859375 12.109375 1.5859375 12.109375 1 16 C-2.12883183 18.7754376 -3.79022627 20 -8 20 C-6.71484276 15.71614255 -4.99140961 11.9236306 -2.953125 7.96875 C-1.70439484 5.38940574 -0.82243411 2.74144703 0 0 Z " fill="#DCF7DE" transform="translate(367,272)"/>
<path d="M0 0 C0.69895386 0.00141495 1.39790771 0.0028299 2.11804199 0.00428772 C4.31832429 0.00981955 6.51849923 0.02235848 8.71875 0.03515625 C10.22395685 0.04018009 11.72916532 0.04474143 13.234375 0.04882812 C16.89586735 0.05976648 20.55729817 0.07698266 24.21875 0.09765625 C24.21875 0.42765625 24.21875 0.75765625 24.21875 1.09765625 C23.31519775 1.1227124 22.41164551 1.14776855 21.48071289 1.17358398 C18.1391072 1.26852942 14.79768748 1.36777246 11.45629883 1.4699707 C10.0081076 1.51337255 8.55986346 1.55504369 7.11157227 1.5949707 C5.03385441 1.65254687 2.95640427 1.71627653 0.87890625 1.78125 C-0.37269287 1.81790771 -1.62429199 1.85456543 -2.91381836 1.89233398 C-5.67755504 1.77569531 -5.67755504 1.77569531 -6.78125 3.09765625 C-10.20626072 3.33425239 -13.62405568 3.49439597 -17.0546875 3.61523438 C-18.96811533 3.70676116 -20.87637839 3.89505477 -22.78125 4.09765625 C-23.11125 4.75765625 -23.44125 5.41765625 -23.78125 6.09765625 C-26.09125 5.76765625 -28.40125 5.43765625 -30.78125 5.09765625 C-27.72261178 3.38967837 -24.97767738 2.6210489 -21.53125 2.03515625 C-20.63921875 1.87917969 -19.7471875 1.72320312 -18.828125 1.5625 C-12.47849454 0.59377433 -6.43274148 -0.02593847 0 0 Z " fill="#44C275" transform="translate(223.78125,79.90234375)"/>
<path d="M0 0 C1.46759766 0.39832031 1.46759766 0.39832031 2.96484375 0.8046875 C11.9169403 3.22185643 20.82272505 5.58811155 30 7 C30 7.33 30 7.66 30 8 C23.62694402 8.74507544 17.41688675 9.10349817 11 9 C11.33 8.34 11.66 7.68 12 7 C10.35 6.67 8.7 6.34 7 6 C7 5.34 7 4.68 7 4 C4.69 3.34 2.38 2.68 0 2 C0 1.34 0 0.68 0 0 Z " fill="#DAFCE7" transform="translate(181,358)"/>
<path d="M0 0 C0.85851562 0.556875 1.71703125 1.11375 2.6015625 1.6875 C3.91253906 2.5228125 3.91253906 2.5228125 5.25 3.375 C5.90226562 3.808125 6.55453125 4.24125 7.2265625 4.6875 C6.8965625 5.3475 6.5665625 6.0075 6.2265625 6.6875 C5.1540625 6.501875 4.0815625 6.31625 2.9765625 6.125 C-0.27302359 5.74588162 -1.77812294 5.79999939 -4.7734375 6.6875 C-5.4334375 6.3575 -6.0934375 6.0275 -6.7734375 5.6875 C-5.4534375 5.3575 -4.1334375 5.0275 -2.7734375 4.6875 C-3.1034375 3.6975 -3.4334375 2.7075 -3.7734375 1.6875 C-8.8541585 1.36995494 -12.24673356 2.00622019 -16.87890625 4.12890625 C-19.18952 4.81018 -20.51982802 4.44203444 -22.7734375 3.6875 C-20.56910765 2.84200362 -18.36095217 2.01107186 -16.1484375 1.1875 C-14.30378906 0.49140625 -14.30378906 0.49140625 -12.421875 -0.21875 C-7.66268456 -1.64548803 -4.55419279 -2.15522363 0 0 Z " fill="#D5F8E6" transform="translate(157.7734375,345.3125)"/>
<path d="M0 0 C0.99 0.763125 1.98 1.52625 3 2.3125 C8.05946312 6.12079625 13.29751476 9.66512874 18.5390625 13.21606445 C19.21453125 13.67585693 19.89 14.13564941 20.5859375 14.609375 C21.1948584 15.02155273 21.8037793 15.43373047 22.43115234 15.85839844 C24 17 24 17 26 19 C25.34 19.33 24.68 19.66 24 20 C21.6875 19.1796875 21.6875 19.1796875 19 17.875 C17.6696875 17.25238281 17.6696875 17.25238281 16.3125 16.6171875 C13.55748845 14.69054091 12.94071179 13.1749023 12 10 C10.35 10 8.7 10 7 10 C7 9.34 7 8.68 7 8 C6.34 8 5.68 8 5 8 C5 7.01 5 6.02 5 5 C3.68 4.67 2.36 4.34 1 4 C0.67 2.68 0.34 1.36 0 0 Z " fill="#47C477" transform="translate(198,267)"/>
<path d="M0 0 C1.5 1.3125 1.5 1.3125 3 3 C3 3.99 3 4.98 3 6 C6.63 6 10.26 6 14 6 C11.71636622 8.28363378 10.25204532 8.7152849 7.1875 9.625 C6.33542969 9.88539063 5.48335937 10.14578125 4.60546875 10.4140625 C1.98020834 11.0044509 -0.31920637 11.10588413 -3 11 C-2.32829194 7.1936543 -1.27253436 3.64793184 0 0 Z " fill="#D6EFDF" transform="translate(74,410)"/>
<path d="M0 0 C1.87756738 0.14507848 3.75876493 0.24633699 5.640625 0.31640625 C6.71054688 0.35830078 7.78046875 0.40019531 8.8828125 0.44335938 C9.99398437 0.48267578 11.10515625 0.52199219 12.25 0.5625 C13.93996094 0.62727539 13.93996094 0.62727539 15.6640625 0.69335938 C18.44258954 0.79932015 21.22120391 0.90139142 24 1 C20.50602801 3.32931466 19.07003178 3.25708028 14.94140625 3.265625 C13.15573242 3.26949219 13.15573242 3.26949219 11.33398438 3.2734375 C10.08939453 3.26570313 8.84480469 3.25796875 7.5625 3.25 C5.70141602 3.26160156 5.70141602 3.26160156 3.80273438 3.2734375 C2.61099609 3.27085937 1.41925781 3.26828125 0.19140625 3.265625 C-0.89970459 3.26336914 -1.99081543 3.26111328 -3.11499023 3.25878906 C-5.94283541 3.00512774 -7.59973396 2.46333761 -10 1 C-6.06165757 -0.5216323 -4.01015437 -1.0790613 0 0 Z " fill="#1ED660" transform="translate(224,361)"/>
<path d="M0 0 C0.495 0.99 0.495 0.99 1 2 C-1.23257877 4.43877235 -3.47642208 5.98460519 -6.375 7.5625 C-7.12523437 7.97628906 -7.87546875 8.39007813 -8.6484375 8.81640625 C-9.42445313 9.20699219 -10.20046875 9.59757812 -11 10 C-11.71800781 10.37769531 -12.43601562 10.75539063 -13.17578125 11.14453125 C-17.38103466 12.4183217 -21.44713348 12.20963798 -25.8125 12.125 C-26.69615234 12.11597656 -27.57980469 12.10695313 -28.49023438 12.09765625 C-30.66027359 12.07419637 -32.83017247 12.03832865 -35 12 C-35 11.67 -35 11.34 -35 11 C-33.329375 10.92265625 -33.329375 10.92265625 -31.625 10.84375 C-20.88850158 10.12309228 -8.03399317 8.03399317 0 0 Z " fill="#4DC880" transform="translate(307,293)"/>
<path d="M0 0 C0.5775 0.20625 1.155 0.4125 1.75 0.625 C1.75 0.955 1.75 1.285 1.75 1.625 C-2.12684087 2.81787411 -5.16621923 3.625 -9.25 3.625 C-9.25 4.285 -9.25 4.945 -9.25 5.625 C-11.35251861 6.29684618 -13.45707763 6.96230968 -15.5625 7.625 C-17.32013672 8.181875 -17.32013672 8.181875 -19.11328125 8.75 C-22.25 9.625 -22.25 9.625 -25.25 9.625 C-24.92 7.645 -24.59 5.665 -24.25 3.625 C-23.59 4.285 -22.93 4.945 -22.25 5.625 C-18.95285207 5.29528521 -17.6273161 5.0023161 -15.25 2.625 C-13.2265625 2.28125 -13.2265625 2.28125 -10.875 2.125 C-7.02077968 1.86719262 -3.59787267 -0.59964544 0 0 Z " fill="#45C375" transform="translate(123.25,351.375)"/>
<path d="M0 0 C2.125 0.375 2.125 0.375 4 1 C3.54109375 1.7734375 3.0821875 2.546875 2.609375 3.34375 C-1.72502308 10.70129968 -5.99237584 17.97966892 -9 26 C-9.66 25.01 -10.32 24.02 -11 23 C-8.70833333 16.35416667 -8.70833333 16.35416667 -6 15 C-5.26091577 12.87801988 -4.60665165 10.72606625 -4 8.5625 C-2.21679389 2.21679389 -2.21679389 2.21679389 0 0 Z " fill="#DAF9DD" transform="translate(108,144)"/>
<path d="M0 0 C0 0.66 0 1.32 0 2 C1.8871875 2.1546875 1.8871875 2.1546875 3.8125 2.3125 C6.50898757 2.64657811 7.76317068 2.82977893 10 4.4375 C11 6 11 6 11 8 C11.66 8 12.32 8 13 8 C13 8.66 13 9.32 13 10 C9.55664421 8.96699326 6.41643964 7.74225761 3.25 6.0625 C-1.3069992 3.70451786 -6.06200101 2.33568825 -11 1 C-11 0.67 -11 0.34 -11 0 C-3.57142857 -1.28571429 -3.57142857 -1.28571429 0 0 Z " fill="#E8FBEF" transform="translate(287,86)"/>
<path d="M0 0 C0.33 0 0.66 0 1 0 C1.07558619 4.14018485 1.12925873 8.27997759 1.16479492 12.4206543 C1.17964771 13.82176732 1.19993556 15.22283595 1.22631836 16.6237793 C1.41332392 26.8284159 0.38960287 36.0563425 -2 46 C-2.66 46 -3.32 46 -4 46 C-3.85890014 43.89551062 -3.71195825 41.7914123 -3.5625 39.6875 C-3.48128906 38.51574219 -3.40007812 37.34398437 -3.31640625 36.13671875 C-3 33 -3 33 -2 30 C-1.34 30 -0.68 30 0 30 C0 20.1 0 10.2 0 0 Z " fill="#DEFBE9" transform="translate(377,210)"/>
<path d="M0 0 C0.66 0.33 1.32 0.66 2 1 C2 1.66 2 2.32 2 3 C3.32 3.66 4.64 4.32 6 5 C5.67 6.32 5.34 7.64 5 9 C4.01 9 3.02 9 2 9 C2 8.34 2 7.68 2 7 C-0.97 7 -3.94 7 -7 7 C-7.66 9.31 -8.32 11.62 -9 14 C-9.99 14 -10.98 14 -12 14 C-10.75778952 10.56003251 -9.65442589 7.56289396 -7 5 C-3.3125 4.25 -3.3125 4.25 0 4 C0 2.68 0 1.36 0 0 Z " fill="#F2FDF7" transform="translate(166,149)"/>
<path d="M0 0 C1.98 0 3.96 0 6 0 C5.855625 0.53625 5.71125 1.0725 5.5625 1.625 C4.90489026 4.40157447 4.45079411 7.18253679 4 10 C3.66666667 12 3.33333333 14 3 16 C0.13546142 12.58983503 -1.34703566 9.09305456 -3 5 C-2.34 4.67 -1.68 4.34 -1 4 C-0.34786708 1.97536745 -0.34786708 1.97536745 0 0 Z " fill="#ECFAF0" transform="translate(359,144)"/>
<path d="M0 0 C0 3 0 3 -1 6 C-3.5625 7.1875 -3.5625 7.1875 -6 8 C-6 8.66 -6 9.32 -6 10 C-7.65 10.33 -9.3 10.66 -11 11 C-11.33 12.98 -11.66 14.96 -12 17 C-13.65 17.33 -15.3 17.66 -17 18 C-17.33 18.99 -17.66 19.98 -18 21 C-18.66 20.34 -19.32 19.68 -20 19 C-14.3040694 12.09633626 -8.02017326 6.52730689 -1 1 C-0.67 0.67 -0.34 0.34 0 0 Z " fill="#4BC77B" transform="translate(143,110)"/>
<path d="M0 0 C2.31 0.33 4.62 0.66 7 1 C7 1.66 7 2.32 7 3 C9.38598595 4.28476167 11.4066539 5.09958871 14.0625 5.75 C17 7 17 7 18.875 10 C20 13 20 13 20 15 C20.66 15 21.32 15 22 15 C21.67 15.66 21.34 16.32 21 17 C20.01 16.34 19.02 15.68 18 15 C18 14.34 18 13.68 18 13 C17.38125 12.690625 16.7625 12.38125 16.125 12.0625 C14.75 11.375 13.375 10.6875 12 10 C12 9.34 12 8.68 12 8 C11.319375 7.773125 10.63875 7.54625 9.9375 7.3125 C6.27461218 5.67589055 3.0916961 3.55710888 0 1 C0 0.67 0 0.34 0 0 Z " fill="#C9F8DC" transform="translate(310,102)"/>
<path d="M0 0 C0.66 0 1.32 0 2 0 C2 0.66 2 1.32 2 2 C2.66 2 3.32 2 4 2 C4.061875 2.94875 4.12375 3.8975 4.1875 4.875 C4.455625 5.90625 4.72375 6.9375 5 8 C6.65204456 8.70211894 8.31923769 9.36971413 10 10 C10.8125 12.125 10.8125 12.125 11 15 C11.07541016 15.97259766 11.07541016 15.97259766 11.15234375 16.96484375 C11.30638815 20.2737175 11.23557933 22.57167395 9.625 25.5 C8 27 8 27 6 27 C6.350625 25.989375 6.70125 24.97875 7.0625 23.9375 C8.43389715 18.93240093 8.12698729 15.09709283 5.625 10.44140625 C4.56747698 8.68988374 3.48517325 6.95300859 2.375 5.234375 C1 3 1 3 0 0 Z " fill="#49C07D" transform="translate(106,291)"/>
<path d="M0 0 C1.485 0.99 1.485 0.99 3 2 C3.3365516 4.60306282 3.5089348 7.01502078 3.5625 9.625 C3.80355364 16.2594807 3.80355364 16.2594807 5.125 22.75 C5.99450339 25.979584 5.93865858 26.95927503 5 30 C4.35004703 28.58521865 3.70521278 27.16808513 3.0625 25.75 C2.70285156 24.96109375 2.34320313 24.1721875 1.97265625 23.359375 C0.51088293 19.81354735 -0.12669557 16.72381555 -0.09765625 12.890625 C-0.09443359 12.13652344 -0.09121094 11.38242188 -0.08789062 10.60546875 C-0.07951172 9.82816406 -0.07113281 9.05085937 -0.0625 8.25 C-0.05798828 7.45722656 -0.05347656 6.66445312 -0.04882812 5.84765625 C-0.03708565 3.89840492 -0.01915146 1.94919262 0 0 Z " fill="#4BCC7C" transform="translate(146,176)"/>
<path d="M0 0 C-0.66 0 -1.32 0 -2 0 C-2 0.66 -2 1.32 -2 2 C-9.00353714 6.11704678 -14.87444134 7.83007387 -23 8 C-19.53228781 5.06306009 -15.67614162 3.42045665 -11.5 1.75 C-10.83613281 1.46898438 -10.17226562 1.18796875 -9.48828125 0.8984375 C-3.47658461 -1.52544019 -3.47658461 -1.52544019 0 0 Z " fill="#51CB81" transform="translate(193,86)"/>
<path d="M0 0 C1 3 1 3 0 6 C-1.33333333 6.33333333 -2.66666667 6.66666667 -4 7 C-4.33 7.99 -4.66 8.98 -5 10 C-6 11 -7 12 -8 13 C-8.433125 13.99 -8.433125 13.99 -8.875 15 C-10.38466664 17.68385181 -12.3700253 18.46050262 -15 20 C-15.495 20.70125 -15.99 21.4025 -16.5 22.125 C-18 24 -18 24 -20.6875 24.75 C-21.450625 24.8325 -22.21375 24.915 -23 25 C-22.67 24.34 -22.34 23.68 -22 23 C-21.34 23 -20.68 23 -20 23 C-20 22.34 -20 21.68 -20 21 C-18.390625 19.44921875 -18.390625 19.44921875 -16.25 17.6875 C-13.08996504 15.00676487 -10.49457996 12.32610662 -8 9 C-6.375 7.1875 -6.375 7.1875 -5 6 C-4.34 6 -3.68 6 -3 6 C-2.690625 5.38125 -2.38125 4.7625 -2.0625 4.125 C-1.375 2.75 -0.6875 1.375 0 0 Z " fill="#AFF1CC" transform="translate(345,311)"/>
<path d="M0 0 C-0.66 0 -1.32 0 -2 0 C-2 0.66 -2 1.32 -2 2 C-6.97094431 4.77598189 -11.20459798 6.659094 -17 7 C-17.99 6.67 -18.98 6.34 -20 6 C-20 5.34 -20 4.68 -20 4 C-17.42032203 3.13310822 -14.83723873 2.28126211 -12.25 1.4375 C-11.52039063 1.19064453 -10.79078125 0.94378906 -10.0390625 0.68945312 C-9.33007812 0.46064453 -8.62109375 0.23183594 -7.890625 -0.00390625 C-6.91657715 -0.32597046 -6.91657715 -0.32597046 -5.92285156 -0.65454102 C-3.66555462 -1.06008636 -2.16526518 -0.69296911 0 0 Z " fill="#D6F9E4" transform="translate(134,351)"/>
<path d="M0 0 C0.33 0.99 0.66 1.98 1 3 C0.67 3.66 0.34 4.32 0 5 C2.64 4.67 5.28 4.34 8 4 C7.67 4.99 7.34 5.98 7 7 C5.07421875 7.94921875 5.07421875 7.94921875 2.6875 8.6875 C1.90761719 8.93886719 1.12773437 9.19023437 0.32421875 9.44921875 C-2 10 -2 10 -6 10 C-6 6 -6 6 -4.6875 4.4375 C-4.130625 3.963125 -3.57375 3.48875 -3 3 C-2.1646875 2.1646875 -2.1646875 2.1646875 -1.3125 1.3125 C-0.879375 0.879375 -0.44625 0.44625 0 0 Z " fill="#3ACB70" transform="translate(130,342)"/>
<path d="M0 0 C2.91878393 3.54230123 4.84367372 7.38663069 6.8125 11.5 C7.14958984 12.16386719 7.48667969 12.82773438 7.83398438 13.51171875 C10.18499012 18.42968901 10.18499012 18.42968901 9.19921875 21.46875 C8.80347656 21.9740625 8.40773438 22.479375 8 23 C7.34 20.69 6.68 18.38 6 16 C5.01 16.33 4.02 16.66 3 17 C3 13.7 3 10.4 3 7 C1.68 7 0.36 7 -1 7 C-0.67 4.69 -0.34 2.38 0 0 Z " fill="#49C876" transform="translate(357,152)"/>
<path d="M0 0 C1.32 0.66 2.64 1.32 4 2 C4 2.66 4 3.32 4 4 C4.763125 4.268125 5.52625 4.53625 6.3125 4.8125 C8.87380884 5.94424112 10.19692938 6.91223401 12 9 C11.67 9.99 11.34 10.98 11 12 C11 11.34 11 10.68 11 10 C9.6696875 10.061875 9.6696875 10.061875 8.3125 10.125 C4.96154325 9.9985488 2.90293909 9.65882234 0 8 C-1.35886391 5.08814875 -0.96392528 2.99887865 0 0 Z " fill="#E6F9EC" transform="translate(220,246)"/>
<path d="M0 0 C5.17930997 1.24303439 8.70166639 2.85487785 13 6 C9.25 7.125 9.25 7.125 7 6 C6.67 6.66 6.34 7.32 6 8 C5.01 7.67 4.02 7.34 3 7 C3.33 6.34 3.66 5.68 4 5 C3.34 5 2.68 5 2 5 C2 6.65 2 8.3 2 10 C1.01 10.495 1.01 10.495 0 11 C0 7.37 0 3.74 0 0 Z " fill="#EBF8F2" transform="translate(304,255)"/>
<path d="M0 0 C1.33332095 2.6666419 0.67102033 4.16680303 0 7 C-0.66 7 -1.32 7 -2 7 C-2.10441406 7.72960937 -2.20882812 8.45921875 -2.31640625 9.2109375 C-3.0601553 12.24543363 -4.14942752 14.08060346 -5.9375 16.625 C-6.46214844 17.38039062 -6.98679687 18.13578125 -7.52734375 18.9140625 C-8.01332031 19.60242188 -8.49929687 20.29078125 -9 21 C-9.66 21.99 -10.32 22.98 -11 24 C-11 20.32429867 -10.90067473 19.30023582 -9.35546875 16.25 C-9.00806641 15.5590625 -8.66066406 14.868125 -8.30273438 14.15625 C-7.93470703 13.4446875 -7.56667969 12.733125 -7.1875 12 C-6.83107422 11.2884375 -6.47464844 10.576875 -6.10742188 9.84375 C-4.31866617 6.32531676 -2.52603343 3.05992693 0 0 Z " fill="#49C478" transform="translate(113,142)"/>
<path d="M0 0 C0.66 0 1.32 0 2 0 C2 0.66 2 1.32 2 2 C3.65 2.33 5.3 2.66 7 3 C7 3.66 7 4.32 7 5 C11.29 5.33 15.58 5.66 20 6 C20 6.33 20 6.66 20 7 C9.08024043 7.85458988 0.25573497 5.43904885 -10 2 C-6.58389775 1.05685873 -3.54865136 0.91934883 0 1 C0 0.67 0 0.34 0 0 Z " fill="#CCF6DD" transform="translate(265,297)"/>
<path d="M0 0 C0.66 0.33 1.32 0.66 2 1 C-6.03120957 10.95035576 -6.03120957 10.95035576 -13 13 C-13.99 13 -14.98 13 -16 13 C-16 13.66 -16 14.32 -16 15 C-16.66 14.67 -17.32 14.34 -18 14 C-14.25156552 9.6836209 -11.44404732 8.46570505 -6 7 C-5.67 6.01 -5.34 5.02 -5 4 C-3.37667033 2.61423077 -1.71275535 1.27358732 0 0 Z " fill="#D5F1E1" transform="translate(342,353)"/>
<path d="M0 0 C4.87124228 6.03700967 7.06413783 13.579195 9 21 C8.34 21.66 7.68 22.32 7 23 C6.34 20.03 5.68 17.06 5 14 C4.01 14 3.02 14 2 14 C-0.3992233 9.35150485 -0.19957409 5.08913926 0 0 Z " fill="#D2F9E1" transform="translate(194,158)"/>
<path d="M0 0 C2.97 0 5.94 0 9 0 C7.85240511 4.59037956 6.70960782 5.33669182 3 8 C2.54625 7.525625 2.0925 7.05125 1.625 6.5625 C0.06741796 4.90972192 0.06741796 4.90972192 -2 4 C-1.34 2.68 -0.68 1.36 0 0 Z " fill="#25D16D" transform="translate(327,320)"/>
<path d="M0 0 C5.28 0 10.56 0 16 0 C15.67 0.99 15.34 1.98 15 3 C8.07 3 1.14 3 -6 3 C-6 2.67 -6 2.34 -6 2 C-4.02 2 -2.04 2 0 2 C0 1.34 0 0.68 0 0 Z " fill="#E8FEF4" transform="translate(224,76)"/>
<path d="M0 0 C0.33 0.66 0.66 1.32 1 2 C-1.31 2 -3.62 2 -6 2 C-6 2.66 -6 3.32 -6 4 C-6.99 4 -7.98 4 -9 4 C-9.33 7.3 -9.66 10.6 -10 14 C-11.98 13.34 -13.96 12.68 -16 12 C-14.69063102 9.07909997 -13.24380538 7.24380538 -11 5 C-10.67 4.01 -10.34 3.02 -10 2 C-6.75515269 -0.28341107 -3.87540045 -0.17615457 0 0 Z " fill="#D1F7E2" transform="translate(282,243)"/>
<path d="M0 0 C3.68881485 3.53156519 6.77382244 7.18534092 9.8125 11.3125 C10.21919922 11.86228516 10.62589844 12.41207031 11.04492188 12.97851562 C12.03368611 14.31625547 13.01738585 15.65773623 14 17 C13.34 17.33 12.68 17.66 12 18 C12 17.34 12 16.68 12 16 C9.60931266 14.89363605 9.60931266 14.89363605 7 14 C6.01 14.495 6.01 14.495 5 15 C4.67 12.03 4.34 9.06 4 6 C3.01 6 2.02 6 1 6 C0.67 4.02 0.34 2.04 0 0 Z " fill="#4AC87A" transform="translate(166,230)"/>
<path d="M0 0 C2.11389144 2.74369391 4.04289423 5.52175859 5.8125 8.5 C6.27269531 9.2528125 6.73289063 10.005625 7.20703125 10.78125 C8 13 8 13 7.13671875 15.28125 C6.57404297 16.13203125 6.57404297 16.13203125 6 17 C4 17 2 17 0 17 C0.66 16.34 1.32 15.68 2 15 C2.3561799 10.90393115 1.84839114 8.58125783 0 5 C-0.125 2.25 -0.125 2.25 0 0 Z " fill="#39CC70" transform="translate(152,206)"/>
<path d="M0 0 C0.66 0.33 1.32 0.66 2 1 C0.38405168 3.04119788 -1.2856382 5.04072937 -3 7 C-3.66 7 -4.32 7 -5 7 C-5.309375 7.61875 -5.61875 8.2375 -5.9375 8.875 C-6.625 10.25 -7.3125 11.625 -8 13 C-8.66 13 -9.32 13 -10 13 C-10.33 13.99 -10.66 14.98 -11 16 C-11.33 16 -11.66 16 -12 16 C-12 14.35 -12 12.7 -12 11 C-11.34 11 -10.68 11 -10 11 C-9.67 10.01 -9.34 9.02 -9 8 C-8.34 8 -7.68 8 -7 8 C-6.8453125 7.0409375 -6.8453125 7.0409375 -6.6875 6.0625 C-6.460625 5.381875 -6.23375 4.70125 -6 4 C-5.01 3.67 -4.02 3.34 -3 3 C-3 2.34 -3 1.68 -3 1 C-2.01 0.67 -1.02 0.34 0 0 Z " fill="#3AC774" transform="translate(350,304)"/>
<path d="M0 0 C0 0.66 0 1.32 0 2 C0.66 2.33 1.32 2.66 2 3 C0.741875 3.103125 -0.51625 3.20625 -1.8125 3.3125 C-5.10086081 3.62936258 -5.10086081 3.62936258 -7.625 5.625 C-8.07875 6.07875 -8.5325 6.5325 -9 7 C-12.125 6.8125 -12.125 6.8125 -15 6 C-15.33 5.34 -15.66 4.68 -16 4 C-14.274773 3.32320342 -12.54461061 2.65898 -10.8125 2 C-9.84957031 1.62875 -8.88664063 1.2575 -7.89453125 0.875 C-5.07817642 0.02363228 -2.91835561 -0.17072647 0 0 Z " fill="#CBEEDB" transform="translate(152,373)"/>
<path d="M0 0 C5.28 0.66 10.56 1.32 16 2 C16 2.99 16 3.98 16 5 C16.639375 5.12375 17.27875 5.2475 17.9375 5.375 C18.9584375 5.684375 18.9584375 5.684375 20 6 C20.33 6.66 20.66 7.32 21 8 C17.87949413 7.05659125 15.244245 6.15875925 12.5 4.375 C8.78866026 2.33376314 5.6878831 2.64465619 1.625 3.5 C0.820625 3.7475 0.820625 3.7475 0 4 C-0.12375 4.804375 -0.2475 5.60875 -0.375 6.4375 C-0.58125 7.283125 -0.7875 8.12875 -1 9 C-1.99 9.495 -1.99 9.495 -3 10 C-2.05066101 6.64566891 -1.10251165 3.30753495 0 0 Z " fill="#4DC77C" transform="translate(272,241)"/>
<path d="M0 0 C7.19487676 2.08272748 14.11455416 5.34859925 20 10 C14.25 10.125 14.25 10.125 12 9 C12 8.34 12 7.68 12 7 C10.02 7 8.04 7 6 7 C6 6.34 6 5.68 6 5 C5.34 5 4.68 5 4 5 C4 4.34 4 3.68 4 3 C3.01 3 2.02 3 1 3 C0.67 2.01 0.34 1.02 0 0 Z " fill="#D4FBEA" transform="translate(284,245)"/>
<path d="M0 0 C0.33 0 0.66 0 1 0 C1.29296875 5.95703125 1.29296875 5.95703125 1 8 C0.505 8.42732422 0.01 8.85464844 -0.5 9.29492188 C-2.58446695 11.66437454 -2.34465827 13.20561778 -2.29296875 16.32421875 C-2.28330078 17.35224609 -2.27363281 18.38027344 -2.26367188 19.43945312 C-2.23853516 20.51130859 -2.21339844 21.58316406 -2.1875 22.6875 C-2.17396484 23.77095703 -2.16042969 24.85441406 -2.14648438 25.97070312 C-2.11110643 28.64763405 -2.06174189 31.32356838 -2 34 C-4.85261333 29.72108 -4.3819369 25.97498871 -4.375 20.9375 C-4.37628906 19.99044189 -4.37757813 19.04338379 -4.37890625 18.06762695 C-4.27799173 11.41357571 -3.50237007 5.80080043 0 0 Z " fill="#B7F5CD" transform="translate(153,163)"/>
<path d="M0 0 C1.98 0 3.96 0 6 0 C6.33 1.65 6.66 3.3 7 5 C8.32 5.33 9.64 5.66 11 6 C11 6.66 11 7.32 11 8 C11.66 8 12.32 8 13 8 C13.66 9.32 14.32 10.64 15 12 C10.84848662 10.55797524 7.70021555 8.4989562 4.1875 5.875 C3.21167969 5.15054687 2.23585937 4.42609375 1.23046875 3.6796875 C0.49441406 3.12539063 -0.24164063 2.57109375 -1 2 C-0.67 1.34 -0.34 0.68 0 0 Z " fill="#C5F8D9" transform="translate(209,273)"/>
<path d="M0 0 C4.62675657 1.3922459 8.64686231 3.29520984 12.875 5.625 C14.02742188 6.25664063 15.17984375 6.88828125 16.3671875 7.5390625 C17.67042969 8.26222656 17.67042969 8.26222656 19 9 C17.203125 10.0859375 17.203125 10.0859375 15 11 C11.75 9.625 11.75 9.625 9 8 C9 7.01 9 6.02 9 5 C8.2575 4.87625 7.515 4.7525 6.75 4.625 C4.19858515 4.04513299 2.2732427 3.26291261 0 2 C0 1.34 0 0.68 0 0 Z " fill="#4EBC76" transform="translate(288,91)"/>
<path d="M0 0 C3.63 0 7.26 0 11 0 C5.79611348 3.90291489 -0.20880466 7.87628327 -7 7 C-5.68 6.67 -4.36 6.34 -3 6 C-2.67 4.68 -2.34 3.36 -2 2 C-1.34 2 -0.68 2 0 2 C0 1.34 0 0.68 0 0 Z " fill="#DDF8E4" transform="translate(292,296)"/>
<path d="M0 0 C0.08174796 2.83392926 0.14084985 5.66544819 0.1875 8.5 C0.22520508 9.68722656 0.22520508 9.68722656 0.26367188 10.8984375 C0.33403498 16.62130318 -0.70702602 20.75203857 -3 26 C-3.99 26 -4.98 26 -6 26 C-4.66666667 22 -3.33333333 18 -2 14 C-1.90642308 12.14772748 -1.87006091 10.2921282 -1.875 8.4375 C-1.87242187 7.46683594 -1.86984375 6.49617188 -1.8671875 5.49609375 C-1.83349047 3.00047047 -1.83349047 3.00047047 -3 1 C-1 0 -1 0 0 0 Z " fill="#4ECA85" transform="translate(320,260)"/>
<path d="M0 0 C-0.639375 0.103125 -1.27875 0.20625 -1.9375 0.3125 C-2.618125 0.539375 -3.29875 0.76625 -4 1 C-4.33 1.99 -4.66 2.98 -5 4 C-6.625 5.75 -6.625 5.75 -9 7 C-12.75 6.6875 -12.75 6.6875 -16 6 C-16.66 7.32 -17.32 8.64 -18 10 C-17.67 8.02 -17.34 6.04 -17 4 C-16.38511719 3.87882812 -15.77023438 3.75765625 -15.13671875 3.6328125 C-14.32847656 3.46523438 -13.52023438 3.29765625 -12.6875 3.125 C-11.88699219 2.96257812 -11.08648437 2.80015625 -10.26171875 2.6328125 C-0.71392617 -0.0385906 -0.71392617 -0.0385906 0 0 Z " fill="#DBF4E4" transform="translate(96,390)"/>
<path d="M0 0 C2.60045875 2.3024119 3.84739183 4.49896677 5.1875 7.6875 C5.53167969 8.49574219 5.87585938 9.30398438 6.23046875 10.13671875 C6.48441406 10.75160156 6.73835938 11.36648438 7 12 C5.35 12.33 3.7 12.66 2 13 C-0.24828052 8.50343896 -0.16682272 4.92127034 0 0 Z " fill="#E7F7EB" transform="translate(104,289)"/>
<path d="M0 0 C2.125 0.375 2.125 0.375 4 1 C3.319375 1.495 2.63875 1.99 1.9375 2.5 C-1.20539787 5.1748067 -3.7808061 8.05948389 -6.44921875 11.1953125 C-8 13 -8 13 -10 15 C-9.25 8.25 -9.25 8.25 -7 6 C-6.01 6 -5.02 6 -4 6 C-3.71125 5.38125 -3.4225 4.7625 -3.125 4.125 C-2 2 -2 2 0 0 Z " fill="#4FC480" transform="translate(164,146)"/>
<path d="M0 0 C3.3 0 6.6 0 10 0 C7.58732445 2.41267555 5.40601598 3.21247109 2.25 4.5 C1.22390625 4.9228125 0.1978125 5.345625 -0.859375 5.78125 C-3.87996653 6.95341985 -6.91757707 8.00328839 -10 9 C-10 8.01 -10 7.02 -10 6 C-6.7 4.68 -3.4 3.36 0 2 C0 1.34 0 0.68 0 0 Z " fill="#E5FCEA" transform="translate(176,86)"/>
<path d="M0 0 C-2.43706336 1.4710644 -4.8768488 2.93674186 -7.32421875 4.390625 C-8.92614131 5.35411711 -10.51676911 6.33740272 -12.08203125 7.359375 C-13.875 8.5 -13.875 8.5 -17 10 C-19.4375 9.25 -19.4375 9.25 -21 8 C-19.02 7.67 -17.04 7.34 -15 7 C-15 6.34 -15 5.68 -15 5 C-14.236875 4.731875 -13.47375 4.46375 -12.6875 4.1875 C-10.00893218 3.20735832 -10.00893218 3.20735832 -8.5 1.4375 C-5.97183727 -0.98532262 -3.12543364 -1.56271682 0 0 Z " fill="#4CC87C" transform="translate(313,343)"/>
<path d="M0 0 C0.99 0 1.98 0 3 0 C3.99 3.3 4.98 6.6 6 10 C6.99 10 7.98 10 9 10 C9.66 12.97 10.32 15.94 11 19 C6.37564207 13.66420239 1.35382733 7.06273777 0 0 Z " fill="#CEFCDF" transform="translate(154,208)"/>
<path d="M0 0 C0.66 0 1.32 0 2 0 C2 0.66 2 1.32 2 2 C2.86238281 2.38865234 2.86238281 2.38865234 3.7421875 2.78515625 C6.18369734 4.09884061 8.04981183 5.60297053 10.125 7.4375 C10.80820312 8.03433594 11.49140625 8.63117188 12.1953125 9.24609375 C14 11 14 11 16 14 C14.68 14 13.36 14 12 14 C11.67 12.68 11.34 11.36 11 10 C10.01 10 9.02 10 8 10 C8 9.34 8 8.68 8 8 C7.360625 7.896875 6.72125 7.79375 6.0625 7.6875 C5.381875 7.460625 4.70125 7.23375 4 7 C3.67 6.01 3.34 5.02 3 4 C2.01979625 2.9805881 1.02196992 1.97753644 0 1 C0 0.67 0 0.34 0 0 Z " fill="#49C479" transform="translate(320,110)"/>
<path d="M0 0 C0.89203125 0.11085938 1.7840625 0.22171875 2.703125 0.3359375 C3.37859375 0.43132812 4.0540625 0.52671875 4.75 0.625 C1.73509443 2.63493705 -0.4649927 3.35123341 -3.9375 4.25 C-4.93136719 4.51039063 -5.92523438 4.77078125 -6.94921875 5.0390625 C-7.70847656 5.23242188 -8.46773438 5.42578125 -9.25 5.625 C-9.25 4.305 -9.25 2.985 -9.25 1.625 C-5.9353333 -0.40407167 -3.8184021 -0.50242133 0 0 Z " fill="#D2EFD9" transform="translate(97.25,410.375)"/>
<path d="M0 0 C0.33 0.99 0.66 1.98 1 3 C0.34 3 -0.32 3 -1 3 C-1.2475 3.61875 -1.495 4.2375 -1.75 4.875 C-3.20628639 7.35068687 -4.37812506 7.95125002 -7 9 C-7 9.66 -7 10.32 -7 11 C-7.66 11 -8.32 11 -9 11 C-9 11.66 -9 12.32 -9 13 C-9.66 13 -10.32 13 -11 13 C-11 13.66 -11 14.32 -11 15 C-11.66 15 -12.32 15 -13 15 C-12.1875 13.0625 -12.1875 13.0625 -11 11 C-10.01 10.67 -9.02 10.34 -8 10 C-7.5978125 8.88625 -7.5978125 8.88625 -7.1875 7.75 C-5.55027814 3.95853885 -3.26664874 2.48549361 0 0 Z " fill="#D1ECDB" transform="translate(377,351)"/>
<path d="M0 0 C5.19644079 1.59890486 10.06612142 3.74138003 15 6 C14.67 6.99 14.34 7.98 14 9 C11.57945321 8.19315107 9.19898183 7.33732102 6.8125 6.4375 C6.09707031 6.16808594 5.38164062 5.89867187 4.64453125 5.62109375 C4.10183594 5.41613281 3.55914062 5.21117187 3 5 C3 4.34 3 3.68 3 3 C2.01 3 1.02 3 0 3 C0 2.01 0 1.02 0 0 Z " fill="#47C679" transform="translate(224,286)"/>
<path d="M0 0 C5.61 0 11.22 0 17 0 C17 0.66 17 1.32 17 2 C13.73774826 2.97403725 10.77261339 3.13415799 7.375 3.125 C5.93253906 3.12886719 5.93253906 3.12886719 4.4609375 3.1328125 C2 3 2 3 0 2 C0 1.34 0 0.68 0 0 Z " fill="#E9FEF1" transform="translate(272,300)"/>
<path d="M0 0 C2.70873873 0.79030017 5.41699416 1.58219566 8.125 2.375 C8.88554687 2.59671875 9.64609375 2.8184375 10.4296875 3.046875 C14.64987953 4.28382784 18.83764682 5.57708693 23 7 C23 7.33 23 7.66 23 8 C17.22517271 8.29869796 14.14579692 7.85877606 9 5 C6.26427415 4.30092586 6.26427415 4.30092586 4 4 C4 3.34 4 2.68 4 2 C2.68 2 1.36 2 0 2 C0 1.34 0 0.68 0 0 Z " fill="#52C57D" transform="translate(241,294)"/>
<path d="M0 0 C0.66 0 1.32 0 2 0 C2 0.66 2 1.32 2 2 C2.99 2 3.98 2 5 2 C5.33 3.98 5.66 5.96 6 8 C4.68 8 3.36 8 2 8 C1.67 7.34 1.34 6.68 1 6 C-1.52733235 5.34444881 -1.52733235 5.34444881 -4 5 C-2.71937515 3.2925002 -1.38232443 1.62626404 0 0 Z " fill="#3ACB6F" transform="translate(312,288)"/>
<path d="M0 0 C3.32310483 1.16757737 5.83361132 2.14948857 8 5 C8 5.99 8 6.98 8 8 C8.66 8 9.32 8 10 8 C9.67 9.32 9.34 10.64 9 12 C5.4102307 8.60966233 2.58452345 5.211816 0 1 C0 0.67 0 0.34 0 0 Z " fill="#E2FAE8" transform="translate(165,227)"/>
<path d="M0 0 C0.99 0.33 1.98 0.66 3 1 C2.21625 1.61875 1.4325 2.2375 0.625 2.875 C-1.96837647 4.89858661 -1.96837647 4.89858661 -4 7 C-5.98821313 7.39764263 -7.98944339 7.73775349 -10 8 C-10.33 8.99 -10.66 9.98 -11 11 C-11.99 10.67 -12.98 10.34 -14 10 C-10.51281923 6.10256267 -7.95666049 4.50854885 -3 3 C-1.16310524 1.50113129 -1.16310524 1.50113129 0 0 Z " fill="#D6EFDD" transform="translate(330,388)"/>
<path d="M0 0 C0.99 0.33 1.98 0.66 3 1 C1.73147606 2.60599349 0.460089 4.20972575 -0.8125 5.8125 C-1.87404297 7.15248047 -1.87404297 7.15248047 -2.95703125 8.51953125 C-4.56411377 10.47076911 -6.17040423 12.26274976 -8 14 C-6.7542451 7.89580099 -4.30284347 4.45168397 0 0 Z " fill="#D3F9DD" transform="translate(126,122)"/>
<path d="M0 0 C2.19858192 3.29787288 3.08315174 6.13806357 4.1875 9.9375 C4.55230469 11.16339844 4.91710937 12.38929688 5.29296875 13.65234375 C5.93853762 16.70898753 6.1197357 18.15430227 5 21 C4.525625 19.865625 4.05125 18.73125 3.5625 17.5625 C2.36377917 14.24259834 2.36377917 14.24259834 1 13 C0.76518307 10.81707226 0.58636677 8.62796826 0.4375 6.4375 C0.35371094 5.23996094 0.26992188 4.04242188 0.18359375 2.80859375 C0.12300781 1.88175781 0.06242187 0.95492187 0 0 Z " fill="#5CC884" transform="translate(367,173)"/>
<path d="M0 0 C5.61 0 11.22 0 17 0 C17.33 0.99 17.66 1.98 18 3 C11.73 2.67 5.46 2.34 -1 2 C-0.67 1.34 -0.34 0.68 0 0 Z " fill="#40C472" transform="translate(171,143)"/>
<path d="M0 0 C-5.26882698 5.56153959 -10.54691858 6.19197985 -18 7 C-16.35891233 3.71782467 -12.82652566 3.0933965 -9.5625 1.8125 C-8.86833984 1.52697266 -8.17417969 1.24144531 -7.45898438 0.94726562 C-2.25026112 -1.12513056 -2.25026112 -1.12513056 0 0 Z " fill="#D9F2DF" transform="translate(310,377)"/>
<path d="M0 0 C0.33 0.99 0.66 1.98 1 3 C0.34 3 -0.32 3 -1 3 C-1.18175781 3.63808594 -1.36351562 4.27617187 -1.55078125 4.93359375 C-1.80214844 5.75988281 -2.05351562 6.58617187 -2.3125 7.4375 C-2.55613281 8.26121094 -2.79976563 9.08492188 -3.05078125 9.93359375 C-3.36402344 10.61550781 -3.67726563 11.29742187 -4 12 C-4.99 12.33 -5.98 12.66 -7 13 C-8.22520264 16.00847418 -8.22520264 16.00847418 -9 19 C-10 17 -10 17 -9.1875 14.4375 C-8 12 -8 12 -6 11 C-5.71125 10.0925 -5.4225 9.185 -5.125 8.25 C-3.93219256 4.80411183 -2.39471199 2.71400692 0 0 Z " fill="#E6F9ED" transform="translate(389,291)"/>
<path d="M0 0 C0.33 0.99 0.66 1.98 1 3 C0.5359375 3.8353125 0.5359375 3.8353125 0.0625 4.6875 C-1.53065326 8.15495121 -1.12648259 11.2055224 -1 15 C-4 13 -4 13 -5 9.75 C-5 5.85286311 -4.89555308 5.34497973 -2.5625 2.5625 C-1.716875 1.716875 -0.87125 0.87125 0 0 Z " fill="#46C379" transform="translate(197,202)"/>
<path d="M0 0 C0.33 0.66 0.66 1.32 1 2 C-0.98 2.99 -0.98 2.99 -3 4 C-3 4.66 -3 5.32 -3 6 C-4.98 6.33 -6.96 6.66 -9 7 C-9.33 8.32 -9.66 9.64 -10 11 C-11.65 11 -13.3 11 -15 11 C-11.89973691 7.72257902 -9.02901106 5.06895163 -5 3 C-4.34 3 -3.68 3 -3 3 C-3 2.34 -3 1.68 -3 1 C-2.01 0.67 -1.02 0.34 0 0 Z " fill="#55C982" transform="translate(159,99)"/>
<path d="M0 0 C1 3 1 3 0.328125 4.97265625 C-0.02765625 5.66230469 -0.3834375 6.35195312 -0.75 7.0625 C-1.26820312 8.10083984 -1.26820312 8.10083984 -1.796875 9.16015625 C-3 11 -3 11 -6 13 C-6.66 12.67 -7.32 12.34 -8 12 C-6.46920333 8.55570748 -4.38345294 5.90483327 -2 3 C-1.34 2.01 -0.68 1.02 0 0 Z " fill="#3FC770" transform="translate(122,130)"/>
<path d="M0 0 C0.33 0.99 0.66 1.98 1 3 C-0.21484375 5.26171875 -0.21484375 5.26171875 -1.9375 7.6875 C-2.50339844 8.49574219 -3.06929688 9.30398437 -3.65234375 10.13671875 C-4.09707031 10.75160156 -4.54179688 11.36648437 -5 12 C-6.06125335 8.28561327 -6 4.85305154 -6 1 C-4 1 -4 1 -2.375 2.5 C-1.92125 2.995 -1.4675 3.49 -1 4 C-0.67 2.68 -0.34 1.36 0 0 Z " fill="#E5FDEF" transform="translate(118,131)"/>
<path d="M0 0 C7.40740741 -0.49382716 7.40740741 -0.49382716 10.25 1.875 C10.8275 2.57625 11.405 3.2775 12 4 C14.13309192 5.23512079 14.13309192 5.23512079 16 6 C9.79011871 5.55643705 5.39459439 4.08467498 0 1 C0 0.67 0 0.34 0 0 Z " fill="#DCF3E8" transform="translate(184,400)"/>
<path d="M0 0 C-0.66 0 -1.32 0 -2 0 C-2 0.66 -2 1.32 -2 2 C-3.782129 3.44074715 -5.62660276 4.80510649 -7.5 6.125 C-9.03140625 7.21167969 -9.03140625 7.21167969 -10.59375 8.3203125 C-11.3878125 8.87460937 -12.181875 9.42890625 -13 10 C-13.33 9.01 -13.66 8.02 -14 7 C-9.375 3 -9.375 3 -6 3 C-6 2.01 -6 1.02 -6 0 C-3 -1 -3 -1 0 0 Z " fill="#42C377" transform="translate(327,332)"/>
<path d="M0 0 C0.99 0 1.98 0 3 0 C3 0.66 3 1.32 3 2 C3.66 2 4.32 2 5 2 C5 2.66 5 3.32 5 4 C5.66 4 6.32 4 7 4 C7.33 4.99 7.66 5.98 8 7 C6.35 7.33 4.7 7.66 3 8 C3 7.34 3 6.68 3 6 C2.34 6 1.68 6 1 6 C0.67 4.02 0.34 2.04 0 0 Z " fill="#17D767" transform="translate(200,273)"/>
<path d="M0 0 C0.33 0 0.66 0 1 0 C1.20674944 5.78898419 0.59162079 10.42932723 -1 16 C-1.99 16 -2.98 16 -4 16 C-3.27275406 10.47293087 -1.66554027 5.30039859 0 0 Z " fill="#CEF9DE" transform="translate(372,256)"/>
<path d="M0 0 C2.31 0.33 4.62 0.66 7 1 C7 1.66 7 2.32 7 3 C8.32 3 9.64 3 11 3 C11 3.66 11 4.32 11 5 C12.32 5.33 13.64 5.66 15 6 C11.41282801 7.195724 10.11477791 6.43953627 6.78515625 4.8984375 C4.43592636 3.71611174 2.18870129 2.45913419 0 1 C0 0.67 0 0.34 0 0 Z " fill="#50C37A" transform="translate(230,253)"/>
<path d="M0 0 C6 7.4 6 7.4 6 11 C4.02 11.33 2.04 11.66 0 12 C0 8.04 0 4.08 0 0 Z " fill="#D4F8E2" transform="translate(192,212)"/>
<path d="M0 0 C3.875 2.625 3.875 2.625 5 6 C5.0685495 7.89470816 5.08480372 9.7916834 5.0625 11.6875 C5.05347656 12.68136719 5.04445313 13.67523438 5.03515625 14.69921875 C5.02355469 15.45847656 5.01195312 16.21773437 5 17 C3.42470031 14.04802536 2.33195245 11.14184078 1.375 7.9375 C1.11460937 7.08027344 0.85421875 6.22304687 0.5859375 5.33984375 C0 3 0 3 0 0 Z " fill="#D6FDE8" transform="translate(368,173)"/>
<path d="M0 0 C0.66 0 1.32 0 2 0 C1.30058404 3.14737182 0.23921302 6.02588876 -1 9 C-1.66 9 -2.32 9 -3 9 C-3.2475 9.61875 -3.495 10.2375 -3.75 10.875 C-5.20628639 13.35068687 -6.37812506 13.95125002 -9 15 C-8.67 13.68 -8.34 12.36 -8 11 C-7.01 11 -6.02 11 -5 11 C-5 10.01 -5 9.02 -5 8 C-4.01 8 -3.02 8 -2 8 C-1.34 5.36 -0.68 2.72 0 0 Z " fill="#CAFAE3" transform="translate(315,279)"/>
<path d="M0 0 C0.33 0 0.66 0 1 0 C1 5.28 1 10.56 1 16 C0.01 15.67 -0.98 15.34 -2 15 C-2.21755666 9.5610835 -2.10428384 5.12919186 0 0 Z " fill="#DEFBE9" transform="translate(367,272)"/>
<path d="M0 0 C2.64752004 2.57784846 4.94432065 4.91648098 7 8 C6.67 8.99 6.34 9.98 6 11 C3.03 8.03 0.06 5.06 -3 2 C-2.01 1.34 -1.02 0.68 0 0 Z " fill="#CEF9E2" transform="translate(193,257)"/>
<path d="M0 0 C1 3 1 3 0.07421875 5.4453125 C-0.38339844 6.32960938 -0.84101563 7.21390625 -1.3125 8.125 C-1.98732422 9.45917969 -1.98732422 9.45917969 -2.67578125 10.8203125 C-4 13 -4 13 -6 14 C-5.71640113 12.5608866 -5.42278601 11.12374482 -5.125 9.6875 C-4.96257812 8.88699219 -4.80015625 8.08648437 -4.6328125 7.26171875 C-4 5 -4 5 -2 2 C-1.34 2 -0.68 2 0 2 C0 1.34 0 0.68 0 0 Z " fill="#DFF6E9" transform="translate(406,306)"/>
<path d="M0 0 C6.06766736 -0.21975455 11.27815583 -0.14569156 17 2 C17.66 2.66 18.32 3.32 19 4 C12.56025419 3.37679879 6.32427599 2.35991738 0 1 C0 0.67 0 0.34 0 0 Z " fill="#C8F8DB" transform="translate(256,81)"/>
<path d="M0 0 C-1.98 0.33 -3.96 0.66 -6 1 C-6 1.66 -6 2.32 -6 3 C-9.3 3 -12.6 3 -16 3 C-13.63496183 0.63496183 -12.35963958 0.45078941 -9.125 -0.1875 C-8.26132812 -0.36667969 -7.39765625 -0.54585938 -6.5078125 -0.73046875 C-4.00753003 -0.9991907 -2.36944548 -0.7769577 0 0 Z " fill="#BAF7D5" transform="translate(272,363)"/>
<path d="M0 0 C0.66 0.66 1.32 1.32 2 2 C5.13545766 2.02135378 5.13545766 2.02135378 8.625 1.625 C10.40777344 1.45871094 10.40777344 1.45871094 12.2265625 1.2890625 C13.14179687 1.19367188 14.05703125 1.09828125 15 1 C12.20083611 2.86610926 10.18061731 3.68785383 7 4.625 C6.13375 4.88539063 5.2675 5.14578125 4.375 5.4140625 C2 6 2 6 -1 6 C-0.67 4.02 -0.34 2.04 0 0 Z " fill="#84CFA5" transform="translate(99,355)"/>
<path d="M0 0 C0.99 0.33 1.98 0.66 3 1 C3 1.66 3 2.32 3 3 C4.32 3.33 5.64 3.66 7 4 C6.34 4 5.68 4 5 4 C4.67 5.32 4.34 6.64 4 8 C2.68 8.33 1.36 8.66 0 9 C0.185625 8.071875 0.37125 7.14375 0.5625 6.1875 C1.24123881 2.98656229 1.24123881 2.98656229 0 0 Z " fill="#32CB66" transform="translate(238,293)"/>
<path d="M0 0 C0.66 0 1.32 0 2 0 C1.47606294 5.86809507 0.23891142 10.54873741 -2 16 C-2.33 16 -2.66 16 -3 16 C-3.1953125 9.9453125 -3.1953125 9.9453125 -3 8 C-2.34 7.34 -1.68 6.68 -1 6 C-0.60235737 4.01178687 -0.26224651 2.01055661 0 0 Z " fill="#4BC477" transform="translate(370,256)"/>
<path d="M0 0 C0.66 0.33 1.32 0.66 2 1 C0.33784732 2.33895632 -1.32963607 3.67130142 -3 5 C-3.680625 5.598125 -4.36125 6.19625 -5.0625 6.8125 C-7 8 -7 8 -9.25 7.6875 C-9.8275 7.460625 -10.405 7.23375 -11 7 C-10.34 7 -9.68 7 -9 7 C-9 6.34 -9 5.68 -9 5 C-7.54735962 4.1361871 -6.0876837 3.28419546 -4.625 2.4375 C-3.40683594 1.72400391 -3.40683594 1.72400391 -2.1640625 0.99609375 C-1.44992187 0.66738281 -0.73578125 0.33867187 0 0 Z " fill="#D0F9DF" transform="translate(303,348)"/>
<path d="M0 0 C0.66 0.33 1.32 0.66 2 1 C1.34 3.31 0.68 5.62 0 8 C-1.65 8 -3.3 8 -5 8 C-3.8141763 4.62496331 -2.72426311 2.35277269 0 0 Z " fill="#E6FEF0" transform="translate(341,318)"/>
<path d="M0 0 C-2 2 -2 2 -3.97119141 2.22705078 C-4.75671387 2.21657715 -5.54223633 2.20610352 -6.3515625 2.1953125 C-7.20234375 2.18886719 -8.053125 2.18242187 -8.9296875 2.17578125 C-10.26386719 2.15064453 -10.26386719 2.15064453 -11.625 2.125 C-12.97078125 2.11146484 -12.97078125 2.11146484 -14.34375 2.09765625 C-16.56276586 2.0740497 -18.78125077 2.0411231 -21 2 C-21 1.67 -21 1.34 -21 1 C-18.06328811 0.6377756 -15.12596806 0.28491613 -12.1875 -0.0625 C-10.93743164 -0.2181543 -10.93743164 -0.2181543 -9.66210938 -0.37695312 C-8.45844727 -0.51713867 -8.45844727 -0.51713867 -7.23046875 -0.66015625 C-6.49207764 -0.74918213 -5.75368652 -0.83820801 -4.99291992 -0.92993164 C-3 -1 -3 -1 0 0 Z " fill="#44C276" transform="translate(293,303)"/>
<path d="M0 0 C3.59634744 3.49359465 6.83451967 7.11098131 10 11 C9.01 11.33 8.02 11.66 7 12 C7 11.01 7 10.02 7 9 C6.01 8.67 5.02 8.34 4 8 C2.66666667 6.66666667 1.33333333 5.33333333 0 4 C0 2.68 0 1.36 0 0 Z " fill="#46C881" transform="translate(180,248)"/>
<path d="M0 0 C2.125 0.375 2.125 0.375 4 1 C2.68 3.31 1.36 5.62 0 8 C-0.99 8 -1.98 8 -3 8 C-2.25 2.25 -2.25 2.25 0 0 Z " fill="#E2FAE8" transform="translate(108,144)"/>
<path d="M0 0 C2.0625 0.4375 2.0625 0.4375 4 1 C4 1.66 4 2.32 4 3 C4.66 3 5.32 3 6 3 C6.33 4.98 6.66 6.96 7 9 C0.42857143 5 0.42857143 5 -1 1 C-0.67 0.67 -0.34 0.34 0 0 Z " fill="#D2F8DF" transform="translate(335,120)"/>
<path d="M0 0 C5.452999 1.56818272 9.76486783 3.03810217 14 7 C10.65626525 6.44271087 7.96687001 5.64826111 5 4 C4.67 4.66 4.34 5.32 4 6 C2.68 4.02 1.36 2.04 0 0 Z " fill="#DEF6E6" transform="translate(156,376)"/>
<path d="M0 0 C-4.86628419 2.62030687 -9.4185702 4.3283194 -15 4 C-13 1 -13 1 -9.75 0.3125 C-6.47238165 0.03936514 -3.28601251 -0.08014665 0 0 Z " fill="#47C17B" transform="translate(278,359)"/>
<path d="M0 0 C1 2 1 2 0.22265625 4.3828125 C-0.16019531 5.28773438 -0.54304688 6.19265625 -0.9375 7.125 C-1.31777344 8.03507812 -1.69804688 8.94515625 -2.08984375 9.8828125 C-2.39019531 10.58148438 -2.69054687 11.28015625 -3 12 C-2.34 12.33 -1.68 12.66 -1 13 C-1.99 13 -2.98 13 -4 13 C-5.08557659 9.75784173 -4.94015194 7.97678191 -3.6875 4.8125 C-3.42324219 4.11769531 -3.15898438 3.42289062 -2.88671875 2.70703125 C-2 1 -2 1 0 0 Z " fill="#D5F9EB" transform="translate(101,349)"/>
<path d="M0 0 C2.625 0.375 2.625 0.375 5 1 C5.33 1.99 5.66 2.98 6 4 C8.01508358 4.73323796 8.01508358 4.73323796 10 5 C7.5332355 5.88336837 6.36140628 6.1312406 3.859375 5.22265625 C3.16328125 4.83980469 2.4671875 4.45695312 1.75 4.0625 C1.04359375 3.68222656 0.3371875 3.30195313 -0.390625 2.91015625 C-0.92171875 2.60980469 -1.4528125 2.30945313 -2 2 C-1.34 1.34 -0.68 0.68 0 0 Z " fill="#D2FBE2" transform="translate(226,284)"/>
<path d="M0 0 C0.66 0 1.32 0 2 0 C3.44282367 8.1354395 3.44282367 8.1354395 1.6875 11.5625 C0 13 0 13 -2 13 C-1.67 11.96875 -1.34 10.9375 -1 9.875 C-0.0284808 6.51573291 0.17116771 3.50893798 0 0 Z " fill="#5BCC88" transform="translate(114,305)"/>
<path d="M0 0 C0.33 0 0.66 0 1 0 C0.58894145 5.24099655 -0.24039194 8.24039194 -4 12 C-4.66 12 -5.32 12 -6 12 C-4.43358249 7.69235185 -2.31663844 3.93828536 0 0 Z " fill="#CDF8DF" transform="translate(358,292)"/>
<path d="M0 0 C1.98 0 3.96 0 6 0 C1.25 4.875 1.25 4.875 -1 6 C-1.66 5.67 -2.32 5.34 -3 5 C-3 4.01 -3 3.02 -3 2 C-2.01 2 -1.02 2 0 2 C0 1.34 0 0.68 0 0 Z " fill="#1ED762" transform="translate(227,292)"/>
<path d="M0 0 C1.3805087 3.76668598 0.59568159 6.44789173 -0.4375 10.25 C-0.72496094 11.32765625 -1.01242187 12.4053125 -1.30859375 13.515625 C-1.53675781 14.33546875 -1.76492188 15.1553125 -2 16 C-2.66 16 -3.32 16 -4 16 C-3.67 13.36 -3.34 10.72 -3 8 C-2.34 8 -1.68 8 -1 8 C-1.020625 7.05125 -1.04125 6.1025 -1.0625 5.125 C-1 2 -1 2 0 0 Z " fill="#E7F9EC" transform="translate(414,280)"/>
<path d="M0 0 C1.32 0.33 2.64 0.66 4 1 C4.33 2.32 4.66 3.64 5 5 C5.66 5 6.32 5 7 5 C7 5.66 7 6.32 7 7 C5.68 7 4.36 7 3 7 C3 6.34 3 5.68 3 5 C2.34 5 1.68 5 1 5 C0.67 3.35 0.34 1.7 0 0 Z " fill="#1BD765" transform="translate(183,258)"/>
<path d="M0 0 C1.9375 0.375 1.9375 0.375 4 1 C4.33 1.66 4.66 2.32 5 3 C5.99 3.33 6.98 3.66 8 4 C8.33 5.98 8.66 7.96 9 10 C5.06451569 6.93906776 2.31883213 4.50884026 0 0 Z " fill="#D0FAE3" transform="translate(181,248)"/>
<path d="M0 0 C0.33 0 0.66 0 1 0 C1.375 2.75 1.375 2.75 1 6 C-2 8.375 -2 8.375 -5 10 C-5.66 9.67 -6.32 9.34 -7 9 C-5.85793642 7.49712782 -4.71125043 5.99776716 -3.5625 4.5 C-2.92441406 3.6646875 -2.28632813 2.829375 -1.62890625 1.96875 C-0.82259766 0.99421875 -0.82259766 0.99421875 0 0 Z " fill="#4BC77B" transform="translate(205,192)"/>
<path d="M0 0 C0.66 0 1.32 0 2 0 C3.32421875 1.609375 3.32421875 1.609375 4.6875 3.75 C5.14511719 4.44609375 5.60273438 5.1421875 6.07421875 5.859375 C7.16906025 8.39090725 6.9435441 9.46100862 6 12 C4.02 8.535 4.02 8.535 2 5 C1.34 5 0.68 5 0 5 C0 3.35 0 1.7 0 0 Z " fill="#BFF0D4" transform="translate(187,146)"/>
<path d="M0 0 C7.75 0.875 7.75 0.875 10 2 C10 3.32 10 4.64 10 6 C6.00499382 4.6302836 3.19990508 2.74277578 0 0 Z " fill="#CCF6DA" transform="translate(300,96)"/>
<path d="M0 0 C5.625 -0.25 5.625 -0.25 9 2 C9 2.66 9 3.32 9 4 C10.32 4.33 11.64 4.66 13 5 C10 6 10 6 7.51953125 5.00390625 C6.62621094 4.52824219 5.73289063 4.05257813 4.8125 3.5625 C3.91144531 3.08941406 3.01039063 2.61632812 2.08203125 2.12890625 C1.39496094 1.75636719 0.70789063 1.38382812 0 1 C0 0.67 0 0.34 0 0 Z " fill="#DCF1E1" transform="translate(166,392)"/>
<path d="M0 0 C2.64 0 5.28 0 8 0 C8 0.66 8 1.32 8 2 C10.64 2 13.28 2 16 2 C16.33 2.66 16.66 3.32 17 4 C5.47835991 3.22095672 5.47835991 3.22095672 0 1 C0 0.67 0 0.34 0 0 Z " fill="#66C98D" transform="translate(192,361)"/>
<path d="M0 0 C2.64 0 5.28 0 8 0 C7.6875 1.875 7.6875 1.875 7 4 C6.01 4.66 5.02 5.32 4 6 C3.67 5.01 3.34 4.02 3 3 C2.01 2.67 1.02 2.34 0 2 C0 1.34 0 0.68 0 0 Z " fill="#37C872" transform="translate(328,320)"/>
<path d="M0 0 C0.33 0.66 0.66 1.32 1 2 C2.65438613 2.69658363 4.32254318 3.36096883 6 4 C6.99 4.66 7.98 5.32 9 6 C8.67 6.99 8.34 7.98 8 9 C5.5 7.625 5.5 7.625 3 6 C3 5.34 3 4.68 3 4 C0.525 3.01 0.525 3.01 -2 2 C-1.34 1.34 -0.68 0.68 0 0 Z " fill="#4AC982" transform="translate(221,244)"/>
<path d="M0 0 C0.33 0 0.66 0 1 0 C1.1799928 5.21979128 0.97094808 9.07262981 -1 14 C-1.66 14 -2.32 14 -3 14 C-2.69024532 12.22868439 -2.37709575 10.45796222 -2.0625 8.6875 C-1.88847656 7.70136719 -1.71445313 6.71523437 -1.53515625 5.69921875 C-1 3 -1 3 0 0 Z " fill="#5FC888" transform="translate(95,178)"/>
<path d="M0 0 C0.66 0.33 1.32 0.66 2 1 C0.38405168 3.04119788 -1.2856382 5.04072937 -3 7 C-3.66 7 -4.32 7 -5 7 C-5.33 7.66 -5.66 8.32 -6 9 C-6 7.35 -6 5.7 -6 4 C-5.01 3.67 -4.02 3.34 -3 3 C-3 2.34 -3 1.68 -3 1 C-2.01 0.67 -1.02 0.34 0 0 Z " fill="#53C983" transform="translate(350,304)"/>
<path d="M0 0 C1.75 0.0625 1.75 0.0625 4 1 C5.59501537 3.24164322 6.74543018 5.53566643 8 8 C7.34 8 6.68 8 6 8 C6 7.34 6 6.68 6 6 C5.195625 5.7525 4.39125 5.505 3.5625 5.25 C1 4 1 4 0.1875 1.875 C0.125625 1.25625 0.06375 0.6375 0 0 Z " fill="#54CA80" transform="translate(172,240)"/>
<path d="M0 0 C5.27710354 2.3439244 9.15080717 4.66965806 13 9 C11.35 8.67 9.7 8.34 8 8 C7.67 7.01 7.34 6.02 7 5 C4.57616923 3.83046584 4.57616923 3.83046584 2 3 C1.34 2.67 0.68 2.34 0 2 C0 1.34 0 0.68 0 0 Z " fill="#4AC07A" transform="translate(307,101)"/>
<path d="M0 0 C3.96 0 7.92 0 12 0 C12 0.99 12 1.98 12 3 C7.18550592 2.51855059 4.39828259 2.1991413 0 0 Z " fill="#CFEFDB" transform="translate(196,404)"/>
<path d="M0 0 C4.29 0.33 8.58 0.66 13 1 C13 1.33 13 1.66 13 2 C11.39679026 2.19551338 9.79237014 2.38111983 8.1875 2.5625 C7.29417969 2.66691406 6.40085938 2.77132813 5.48046875 2.87890625 C3 3 3 3 0 2 C0 1.34 0 0.68 0 0 Z " fill="#CDFAE2" transform="translate(198,364)"/>
<path d="M0 0 C0.66 0.66 1.32 1.32 2 2 C3.2684375 2.495 3.2684375 2.495 4.5625 3 C7 4 7 4 8 6 C2.46153846 6.36923077 2.46153846 6.36923077 0.125 4.5 C-0.24625 4.005 -0.6175 3.51 -1 3 C-0.67 2.01 -0.34 1.02 0 0 Z " fill="#2CD070" transform="translate(184,353)"/>
<path d="M0 0 C0.66 0.33 1.32 0.66 2 1 C1.67 1.66 1.34 2.32 1 3 C0.34 3 -0.32 3 -1 3 C-1.226875 3.639375 -1.45375 4.27875 -1.6875 4.9375 C-3 7 -3 7 -5.625 7.75 C-6.800625 7.87375 -6.800625 7.87375 -8 8 C-5.33333333 5.33333333 -2.66666667 2.66666667 0 0 Z " fill="#C7F6DF" transform="translate(320,336)"/>
<path d="M0 0 C4.95 0.99 4.95 0.99 10 2 C10 2.66 10 3.32 10 4 C10.66 4 11.32 4 12 4 C12 4.66 12 5.32 12 6 C7.76570244 4.68938409 3.92592596 3.05643741 0 1 C0 0.67 0 0.34 0 0 Z " fill="#C5F7D9" transform="translate(288,90)"/>
<path d="M0 0 C1.32 0 2.64 0 4 0 C3.67 1.65 3.34 3.3 3 5 C1.68 5 0.36 5 -1 5 C-0.67 3.35 -0.34 1.7 0 0 Z " fill="#EBFFFD" transform="translate(265,264)"/>
<path d="M0 0 C1.258125 0.12375 2.51625 0.2475 3.8125 0.375 C4.87404297 0.47941406 4.87404297 0.47941406 5.95703125 0.5859375 C8 1 8 1 11 3 C10.67 3.66 10.34 4.32 10 5 C6.08788267 3.84414715 3.1254959 2.64465038 0 0 Z " fill="#54CA7D" transform="translate(296,250)"/>
<path d="M0 0 C1.32 0 2.64 0 4 0 C3.67 0.99 3.34 1.98 3 3 C2.01 3 1.02 3 0 3 C0 3.99 0 4.98 0 6 C-1.32 5.67 -2.64 5.34 -4 5 C-4 4.34 -4 3.68 -4 3 C-3.01 2.67 -2.02 2.34 -1 2 C-0.67 1.34 -0.34 0.68 0 0 Z " fill="#18D863" transform="translate(236,246)"/>
<path d="M0 0 C2.31 0.33 4.62 0.66 7 1 C4.38058783 2.74627478 2.96175123 3.38722388 0 4 C-0.12375 4.804375 -0.2475 5.60875 -0.375 6.4375 C-0.58125 7.283125 -0.7875 8.12875 -1 9 C-1.99 9.495 -1.99 9.495 -3 10 C-2.05066101 6.64566891 -1.10251165 3.30753495 0 0 Z " fill="#5DCF87" transform="translate(272,241)"/>
<path d="M0 0 C1.5 1.375 1.5 1.375 3 3 C3 3.66 3 4.32 3 5 C3.66 5 4.32 5 5 5 C5.33 7.64 5.66 10.28 6 13 C5.34 12.67 4.68 12.34 4 12 C4 10.68 4 9.36 4 8 C3.34 8 2.68 8 2 8 C2 6.68 2 5.36 2 4 C1.34 4 0.68 4 0 4 C0 2.68 0 1.36 0 0 Z " fill="#DCF2E3" transform="translate(388,152)"/>
<path d="M0 0 C3 1 3 1 3.984375 2.7421875 C4.23703125 3.44601563 4.4896875 4.14984375 4.75 4.875 C5.01296875 5.57367188 5.2759375 6.27234375 5.546875 6.9921875 C6 9 6 9 5 12 C2 6.25 2 6.25 2 4 C1.34 4 0.68 4 0 4 C0 2.68 0 1.36 0 0 Z " fill="#E1FBEA" transform="translate(392,148)"/>
<path d="M0 0 C0.99 0.66 1.98 1.32 3 2 C2.34 2 1.68 2 1 2 C1 2.66 1 3.32 1 4 C1.66 4.33 2.32 4.66 3 5 C1.68 5.99 0.36 6.98 -1 8 C-1.68707555 5.50935112 -2 3.62113708 -2 1 C-1.34 0.67 -0.68 0.34 0 0 Z " fill="#FCF5F5" transform="translate(122,119)"/>
<path d="M0 0 C0.66 0.33 1.32 0.66 2 1 C-0.31537955 4.72114571 -2.28579473 7.61229661 -6 10 C-5.49477778 5.62140745 -2.82172778 3.18348776 0 0 Z " fill="#CFEDDE" transform="translate(384,341)"/>
<path d="M0 0 C-0.54074373 3.78520613 -2.07572746 5.59177555 -5 8 C-5.99 8 -6.98 8 -8 8 C-6.78549285 4.35647855 -4.23741046 0 0 0 Z " fill="#E8FBF0" transform="translate(360,336)"/>
<path d="M0 0 C0.33 0.66 0.66 1.32 1 2 C-0.59617578 5.83082186 -1.49984971 7.66656647 -5 10 C-3.14285714 2.42857143 -3.14285714 2.42857143 0 0 Z " fill="#DAFBE9" transform="translate(350,306)"/>
<path d="M0 0 C7.38461538 0.49230769 7.38461538 0.49230769 10.5 3.0625 C10.995 3.701875 11.49 4.34125 12 5 C7.43545749 4.45660208 4.0271824 3.20536179 0 1 C0 0.67 0 0.34 0 0 Z " fill="#BDF6D5" transform="translate(234,290)"/>
<path d="M0 0 C1.17539996 0.92652701 2.34010577 1.86663387 3.5 2.8125 C4.1496875 3.33457031 4.799375 3.85664063 5.46875 4.39453125 C7 6 7 6 7 9 C6.34 9 5.68 9 5 9 C3.7109375 7.5390625 3.7109375 7.5390625 2.375 5.625 C1.92898437 4.99851562 1.48296875 4.37203125 1.0234375 3.7265625 C0 2 0 2 0 0 Z " fill="#48C67C" transform="translate(190,259)"/>
<path d="M0 0 C3.7910119 1.44950455 7.3874638 3.15172566 11 5 C11 5.33 11 5.66 11 6 C8.3125 6.3125 8.3125 6.3125 5 6 C2.125 3.5625 2.125 3.5625 0 1 C0 0.67 0 0.34 0 0 Z " fill="#CDF9DC" transform="translate(293,249)"/>
<path d="M0 0 C3.08089673 2.77280706 4.68775452 5.06326356 6 9 C3.525 8.01 3.525 8.01 1 7 C0.67 4.69 0.34 2.38 0 0 Z " fill="#54CA83" transform="translate(160,221)"/>
<path d="M0 0 C0.66 0 1.32 0 2 0 C1.67 2.64 1.34 5.28 1 8 C0.34 8 -0.32 8 -1 8 C-1.33 8.99 -1.66 9.98 -2 11 C-1.85892253 9.54119891 -1.71197585 8.08296449 -1.5625 6.625 C-1.48128906 5.81289062 -1.40007812 5.00078125 -1.31640625 4.1640625 C-1 2 -1 2 0 0 Z " fill="#48C37A" transform="translate(92,192)"/>
<path d="M0 0 C3 1 3 1 3.984375 2.9609375 C4.23703125 3.75757813 4.4896875 4.55421875 4.75 5.375 C5.14445312 6.56222656 5.14445312 6.56222656 5.546875 7.7734375 C6 10 6 10 5 13 C4.16209211 11.21046815 3.32980604 9.41830305 2.5 7.625 C1.80390625 6.12839844 1.80390625 6.12839844 1.09375 4.6015625 C0 2 0 2 0 0 Z " fill="#DBFADE" transform="translate(362,160)"/>
<path d="M0 0 C-3.00440021 2.00293347 -4.70993945 2.49271626 -8.1875 3.125 C-9.53908203 3.37636719 -9.53908203 3.37636719 -10.91796875 3.6328125 C-11.60503906 3.75398438 -12.29210937 3.87515625 -13 4 C-13 3.34 -13 2.68 -13 2 C-8.50343896 -0.24828052 -4.92127034 -0.16682272 0 0 Z " fill="#DAFEEB" transform="translate(200,82)"/>
<path d="M0 0 C4.38332057 0.82187261 8.67940177 1.90154282 13 3 C13 3.33 13 3.66 13 4 C8.17639811 4.19294408 4.50353262 3.75747614 0 2 C0 1.34 0 0.68 0 0 Z " fill="#CFFBE5" transform="translate(245,262)"/>
<path d="M0 0 C1.32 0.33 2.64 0.66 4 1 C4.66 3.64 5.32 6.28 6 9 C2.91910327 6.22719294 1.31224548 3.93673644 0 0 Z " fill="#44C17A" transform="translate(196,217)"/>
<path d="M0 0 C2.51588418 5.03176835 3.10449869 7.35707078 3 13 C2.67 11.68 2.34 10.36 2 9 C1.34 9 0.68 9 0 9 C0 6.03 0 3.06 0 0 Z " fill="#36C86F" transform="translate(370,188)"/>
<path d="M0 0 C0.99 0 1.98 0 3 0 C1.47291037 3.43595166 -0.59927045 6.11912454 -3 9 C-2.25 2.25 -2.25 2.25 0 0 Z " fill="#3FC576" transform="translate(157,152)"/>
<path d="M0 0 C5.75 -0.125 5.75 -0.125 8 1 C8 1.66 8 2.32 8 3 C5.36 3.33 2.72 3.66 0 4 C0.99 3.67 1.98 3.34 3 3 C3 2.34 3 1.68 3 1 C2.01 0.67 1.02 0.34 0 0 Z " fill="#D5F3E1" transform="translate(288,404)"/>
<path d="M0 0 C2.64 0.99 5.28 1.98 8 3 C7.67 3.66 7.34 4.32 7 5 C4.625 4.75 4.625 4.75 2 4 C0.6875 1.9375 0.6875 1.9375 0 0 Z " fill="#D0FDE9" transform="translate(165,351)"/>
<path d="M0 0 C0.66 0 1.32 0 2 0 C1.67 1.32 1.34 2.64 1 4 C-1.31 4.33 -3.62 4.66 -6 5 C-5.195625 4.360625 -4.39125 3.72125 -3.5625 3.0625 C-1.7249496 1.59396498 -1.7249496 1.59396498 0 0 Z " fill="#1BD560" transform="translate(305,340)"/>
<path d="M0 0 C1.98 0 3.96 0 6 0 C6 1.65 6 3.3 6 5 C3.69 4.01 1.38 3.02 -1 2 C-0.67 1.34 -0.34 0.68 0 0 Z " fill="#E1F9E8" transform="translate(209,273)"/>
<path d="M0 0 C0.99 0 1.98 0 3 0 C3.66 3.3 4.32 6.6 5 10 C2.327664 6.43688534 1.22736029 4.15414253 0 0 Z " fill="#C9F8D7" transform="translate(154,208)"/>
<path d="M0 0 C2.64465038 3.1254959 3.84414715 6.08788267 5 10 C2 9 2 9 0.8125 7.25 C-0.10819096 4.70039426 -0.14948718 2.69076919 0 0 Z " fill="#48C072" transform="translate(152,206)"/>
<path d="M0 0 C0.99 0.33 1.98 0.66 3 1 C0.69 3.64 -1.62 6.28 -4 9 C-4.33 8.34 -4.66 7.68 -5 7 C-4.67 6.34 -4.34 5.68 -4 5 C-3.34 5 -2.68 5 -2 5 C-1.7834375 4.0409375 -1.7834375 4.0409375 -1.5625 3.0625 C-1 1 -1 1 0 0 Z " fill="#BCF5D4" transform="translate(197,199)"/>
<path d="M0 0 C0.99 0 1.98 0 3 0 C3.33 1.98 3.66 3.96 4 6 C2.68 5.67 1.36 5.34 0 5 C0 3.35 0 1.7 0 0 Z " fill="#18D86A" transform="translate(201,164)"/>
<path d="M0 0 C0.33 0.66 0.66 1.32 1 2 C0.06421005 4.35981813 -0.93347808 6.69631264 -2 9 C-2.99 9 -3.98 9 -5 9 C-3.7508258 5.54074837 -2.32472205 2.85306797 0 0 Z " fill="#BDF1D2" transform="translate(159,154)"/>
<path d="M0 0 C3 3.625 3 3.625 3 7 C1.68 7 0.36 7 -1 7 C-0.67 4.69 -0.34 2.38 0 0 Z " fill="#44CA6C" transform="translate(357,152)"/>
<path d="M0 0 C2.79579355 1.39789678 3.59807058 3.2628997 5 6 C4 8 4 8 2 9 C2 8.34 2 7.68 2 7 C1.34 7 0.68 7 0 7 C0 4.69 0 2.38 0 0 Z " fill="#4ECD7A" transform="translate(352,144)"/>
<path d="M0 0 C-0.33 0.99 -0.66 1.98 -1 3 C-3.0625 3.6875 -3.0625 3.6875 -5 4 C-5.33 2.68 -5.66 1.36 -6 0 C-3.50907189 -1.24546405 -2.58919267 -0.7767578 0 0 Z " fill="#1ED969" transform="translate(343,134)"/>
<path d="M0 0 C0.66 0.33 1.32 0.66 2 1 C1.01 1.33 0.02 1.66 -1 2 C-1.33 2.99 -1.66 3.98 -2 5 C-2.99 5 -3.98 5 -5 5 C-5 5.66 -5 6.32 -5 7 C-5.66 6.67 -6.32 6.34 -7 6 C-2.25 1.125 -2.25 1.125 0 0 Z " fill="#E5FBED" transform="translate(331,361)"/>
<path d="M0 0 C0.33 0.66 0.66 1.32 1 2 C-2.44069624 4.29379749 -3.72290301 5 -8 5 C-8 4.34 -8 3.68 -8 3 C-5.36 2.01 -2.72 1.02 0 0 Z " fill="#ECFDF3" transform="translate(147,346)"/>
<path d="M0 0 C1.13643966 3.40931897 0.86747764 4.00335456 -0.4375 7.1875 C-0.72496094 7.90292969 -1.01242188 8.61835938 -1.30859375 9.35546875 C-1.53675781 9.89816406 -1.76492187 10.44085938 -2 11 C-2.66 10.34 -3.32 9.68 -4 9 C-3.67 8.67 -3.34 8.34 -3 8 C-2.855625 6.845 -2.71125 5.69 -2.5625 4.5 C-2.376875 3.345 -2.19125 2.19 -2 1 C-1.34 0.67 -0.68 0.34 0 0 Z " fill="#E2FBEC" transform="translate(113,311)"/>
<path d="M0 0 C1.32 0 2.64 0 4 0 C3.67 1.32 3.34 2.64 3 4 C1.35 4 -0.3 4 -2 4 C-1.34 2.68 -0.68 1.36 0 0 Z " fill="#19D869" transform="translate(303,298)"/>
<path d="M0 0 C0.33 0 0.66 0 1 0 C1.33 3.3 1.66 6.6 2 10 C1.01 10 0.02 10 -1 10 C-1.125 3.375 -1.125 3.375 0 0 Z " fill="#EFFBFA" transform="translate(374,182)"/>
<path d="M0 0 C1.65 0.33 3.3 0.66 5 1 C5 1.99 5 2.98 5 4 C2.03 3.505 2.03 3.505 -1 3 C-0.67 2.01 -0.34 1.02 0 0 Z " fill="#15D965" transform="translate(300,101)"/>
<path d="M0 0 C2.97 0 5.94 0 9 0 C8.01 1.485 8.01 1.485 7 3 C4.375 3.1875 4.375 3.1875 2 3 C2 2.34 2 1.68 2 1 C1.34 0.67 0.68 0.34 0 0 Z " fill="#CFEEDD" transform="translate(250,393)"/>
<path d="M0 0 C0 0.66 0 1.32 0 2 C0.66 2.33 1.32 2.66 2 3 C-1.3 2.67 -4.6 2.34 -8 2 C-4.77208445 -0.1519437 -3.71599191 -0.20086443 0 0 Z " fill="#DBF0E2" transform="translate(152,373)"/>
<path d="M0 0 C1.32 0.33 2.64 0.66 4 1 C4.33 2.65 4.66 4.3 5 6 C2.5 4.6875 2.5 4.6875 0 3 C0 2.01 0 1.02 0 0 Z " fill="#3FC770" transform="translate(112,300)"/>
<path d="M0 0 C0.33 0.66 0.66 1.32 1 2 C-0.97420135 4.52259061 -1.96745642 4.9929808 -5.1875 5.6875 C-6.5796875 5.8421875 -6.5796875 5.8421875 -8 6 C-5.38485683 3.87961365 -2.80362384 1.86908256 0 0 Z " fill="#5EC98B" transform="translate(307,293)"/>
<path d="M0 0 C2.50037734 2.17424117 3.43628586 3.73045798 4 7 C2.68 6.67 1.36 6.34 0 6 C0 4.02 0 2.04 0 0 Z " fill="#C5F3D3" transform="translate(104,289)"/>
<path d="M0 0 C2.64 0.66 5.28 1.32 8 2 C8 3.32 8 4.64 8 6 C4.63408134 4.55746343 2.48952921 2.66735273 0 0 Z " fill="#C6F3D9" transform="translate(200,268)"/>
<path d="M0 0 C0.99 0.33 1.98 0.66 3 1 C2.67 2.32 2.34 3.64 2 5 C1.01 5 0.02 5 -1 5 C-1.33 4.01 -1.66 3.02 -2 2 C-1.34 1.34 -0.68 0.68 0 0 Z " fill="#EDFFF7" transform="translate(310,265)"/>
<path d="M0 0 C2.4375 0.75 2.4375 0.75 5 2 C5.8125 4.125 5.8125 4.125 6 6 C3.11424181 5.60196439 2.17810487 5.20990931 0.25 2.9375 C-0.1625 2.298125 -0.575 1.65875 -1 1 C-0.67 0.67 -0.34 0.34 0 0 Z " fill="#33CD6A" transform="translate(303,249)"/>
<path d="M0 0 C2.475 0.99 2.475 0.99 5 2 C5 3.65 5 5.3 5 7 C2.47411298 4.63707344 1.11179163 3.33537489 0 0 Z " fill="#C9FADD" transform="translate(165,227)"/>
<path d="M0 0 C0.33 0 0.66 0 1 0 C1 2.64 1 5.28 1 8 C0.01 8.33 -0.98 8.66 -2 9 C-1.125 2.25 -1.125 2.25 0 0 Z " fill="#CDFADE" transform="translate(153,163)"/>
<path d="M0 0 C1.32 0 2.64 0 4 0 C3.67 1.65 3.34 3.3 3 5 C2.01 4.67 1.02 4.34 0 4 C0 2.68 0 1.36 0 0 Z " fill="#1AD86B" transform="translate(132,121)"/>
<path d="M0 0 C0.99 0 1.98 0 3 0 C3 0.66 3 1.32 3 2 C2.34 2 1.68 2 1 2 C0.67 3.32 0.34 4.64 0 6 C-1.32 6.33 -2.64 6.66 -4 7 C-2.68 4.69 -1.36 2.38 0 0 Z " fill="#EBFBF0" transform="translate(131,115)"/>
<path d="M0 0 C3.3 0.99 6.6 1.98 10 3 C8.02 3.99 8.02 3.99 6 5 C2.75 3.625 2.75 3.625 0 2 C0 1.34 0 0.68 0 0 Z " fill="#3ACD76" transform="translate(297,97)"/>
<path d="M0 0 C-0.99 0 -1.98 0 -3 0 C-3 0.66 -3 1.32 -3 2 C-5.64 1.34 -8.28 0.68 -11 0 C-11 -0.33 -11 -0.66 -11 -1 C-3.57142857 -2.42857143 -3.57142857 -2.42857143 0 0 Z " fill="#CEF5E0" transform="translate(287,87)"/>
<path d="M0 0 C0.99 0.33 1.98 0.66 3 1 C-3.28571429 5.42857143 -3.28571429 5.42857143 -7 6 C-2.25 1.125 -2.25 1.125 0 0 Z " fill="#E9FBF1" transform="translate(333,389)"/>
<path d="M0 0 C0.99 0 1.98 0 3 0 C2.67 1.32 2.34 2.64 2 4 C0.02 4.33 -1.96 4.66 -4 5 C-3.67 4.34 -3.34 3.68 -3 3 C-2.01 3 -1.02 3 0 3 C0 2.01 0 1.02 0 0 Z " fill="#33CC62" transform="translate(106,349)"/>
<path d="M0 0 C0.33 0.99 0.66 1.98 1 3 C-0.28965176 4.37562854 -1.62689293 5.70766393 -3 7 C-3.66 7 -4.32 7 -5 7 C-3.70700306 4.11562221 -2.34058637 2.12780579 0 0 Z " fill="#ECFAF5" transform="translate(383,346)"/>
<path d="M0 0 C0.66 0 1.32 0 2 0 C0.375 5.75 0.375 5.75 -3 8 C-3 4 -3 4 -1 2 C-0.67 1.34 -0.34 0.68 0 0 Z " fill="#D0ECD5" transform="translate(391,330)"/>
<path d="M0 0 C0.66 0.33 1.32 0.66 2 1 C0.29374499 3.78388975 -0.47626739 4.85384206 -3.6875 5.75 C-4.8321875 5.87375 -4.8321875 5.87375 -6 6 C-5.67 5.34 -5.34 4.68 -5 4 C-4.34 4 -3.68 4 -3 4 C-3 3.34 -3 2.68 -3 2 C-2.01 1.34 -1.02 0.68 0 0 Z " fill="#CAF9DD" transform="translate(328,330)"/>
<path d="M0 0 C0.99 0.99 1.98 1.98 3 3 C2.34 3 1.68 3 1 3 C1 3.66 1 4.32 1 5 C-0.65 5.33 -2.3 5.66 -4 6 C-4 4 -4 4 -2 1.875 C-1.34 1.25625 -0.68 0.6375 0 0 Z " fill="#32CE6C" transform="translate(327,326)"/>
<path d="M0 0 C0.99 0.33 1.98 0.66 3 1 C3.12375 1.969375 3.2475 2.93875 3.375 3.9375 C3.684375 5.4534375 3.684375 5.4534375 4 7 C4.66 7.33 5.32 7.66 6 8 C5.01 8 4.02 8 3 8 C0 2.25 0 2.25 0 0 Z " fill="#40C378" transform="translate(101,281)"/>
<path d="M0 0 C2.17854707 3.2678206 3.49760034 6.38058265 5 10 C4.34 10 3.68 10 3 10 C3 9.01 3 8.02 3 7 C2.01 6.67 1.02 6.34 0 6 C0 4.02 0 2.04 0 0 Z " fill="#BDF6D9" transform="translate(99,278)"/>
<path d="M0 0 C2.66666667 1.33333333 5.33333333 2.66666667 8 4 C5.39417629 4.93065133 4.35801776 5.14917407 1.75 4.0625 C1.1725 3.711875 0.595 3.36125 0 3 C0 2.01 0 1.02 0 0 Z " fill="#CEF9E4" transform="translate(309,257)"/>
<path d="M0 0 C1.2380014 3.57644848 0.74926071 6.33694766 0 10 C-1.58538318 7.48203847 -2.0373656 6.32134414 -1.6875 3.3125 C-1 1 -1 1 0 0 Z " fill="#32C972" transform="translate(372,246)"/>
<path d="M0 0 C0.66 0.33 1.32 0.66 2 1 C1.67 2.32 1.34 3.64 1 5 C-0.65 5.33 -2.3 5.66 -4 6 C-1.125 1.125 -1.125 1.125 0 0 Z " fill="#D1FAE5" transform="translate(165,148)"/>
<path d="M0 0 C1.33332095 2.6666419 0.67102033 4.16680303 0 7 C-1.32 7.33 -2.64 7.66 -4 8 C-2.87548273 5.0280615 -1.77706209 2.66559313 0 0 Z " fill="#57CB86" transform="translate(113,142)"/>
<path d="M0 0 C1.37562854 1.28965176 2.70766393 2.62689293 4 4 C4 4.66 4 5.32 4 6 C2.35 6 0.7 6 -1 6 C-0.67 5.01 -0.34 4.02 0 3 C0 2.01 0 1.02 0 0 Z " fill="#57D285" transform="translate(348,138)"/>
<path d="M0 0 C0.66 0.99 1.32 1.98 2 3 C1.34 4.32 0.68 5.64 0 7 C-0.99 6.67 -1.98 6.34 -3 6 C-2 4 -1 2 0 0 Z " fill="#4DCE81" transform="translate(117,136)"/>
<path d="M0 0 C-2.62198774 2.15377564 -4.64404172 3.40072174 -8 4 C-8 3.01 -8 2.02 -8 1 C-5.07175348 0.02391783 -3.04386724 -0.08226668 0 0 Z " fill="#D0FBE1" transform="translate(174,91)"/>
<path d="M0 0 C-2.33214148 1.20628008 -4.49642139 2.1654738 -7 3 C-9.1875 2.0625 -9.1875 2.0625 -11 1 C-3.57142857 -1.42857143 -3.57142857 -1.42857143 0 0 Z " fill="#6DD394" transform="translate(204,83)"/>
</svg>
