<?xml version="1.0" standalone="no"?>
<!DOCTYPE svg PUBLIC "-//W3C//DTD SVG 20010904//EN"
 "http://www.w3.org/TR/2001/REC-SVG-20010904/DTD/svg10.dtd">
<svg version="1.0" xmlns="http://www.w3.org/2000/svg"
 width="512.000000pt" height="512.000000pt" viewBox="0 0 512.000000 512.000000"
 preserveAspectRatio="xMidYMid meet">

<g transform="translate(0.000000,512.000000) scale(0.100000,-0.100000)"
fill="#000000" stroke="none">
<path d="M2355 4630 c-415 -47 -810 -211 -1115 -465 -99 -83 -271 -261 -342
-356 -418 -557 -529 -1282 -297 -1945 17 -49 60 -149 95 -223 l65 -133 -142
-425 c-152 -456 -155 -473 -111 -532 30 -41 81 -71 121 -71 20 0 226 63 457
140 l422 141 134 -65 c514 -251 1093 -283 1625 -90 208 75 427 199 603 341 89
72 267 254 331 338 208 272 342 573 404 902 110 591 -48 1207 -432 1683 -78
96 -266 279 -364 352 -272 204 -598 341 -937 394 -118 18 -408 26 -517 14z
m426 -325 c516 -68 959 -344 1249 -778 342 -513 383 -1195 105 -1749 -365
-725 -1160 -1108 -1950 -937 -173 37 -348 105 -508 197 -49 29 -104 54 -122
58 -27 5 -98 -15 -340 -96 -168 -56 -309 -100 -312 -97 -2 3 41 144 97 313 77
233 100 314 96 338 -4 17 -31 74 -61 127 -285 503 -311 1096 -72 1620 100 220
286 459 482 619 375 306 866 448 1336 385z"/>
<path d="M1924 3780 c-234 -48 -456 -260 -559 -533 -33 -89 -32 -151 4 -258
229 -678 754 -1255 1396 -1537 128 -56 273 -109 320 -116 110 -18 361 108 490
245 96 102 161 217 191 340 20 83 9 147 -47 258 -78 157 -231 287 -408 348
-194 67 -285 36 -402 -138 -68 -102 -57 -99 -165 -38 -146 84 -313 235 -397
359 l-36 54 85 59 c139 97 178 194 134 339 -62 204 -196 409 -353 535 -95 77
-166 101 -253 83z m101 -387 c31 -32 71 -80 89 -108 42 -63 96 -170 96 -189 0
-9 -28 -34 -62 -57 -125 -83 -166 -140 -175 -240 -7 -77 12 -129 94 -253 87
-133 281 -327 413 -415 145 -96 289 -162 366 -169 119 -9 187 34 285 180 66
98 63 97 154 43 72 -42 165 -157 165 -203 0 -32 -60 -130 -112 -183 -59 -60
-187 -139 -226 -139 -32 0 -190 64 -323 131 -227 115 -414 254 -599 445 -224
232 -379 473 -496 776 -19 48 -34 97 -34 109 0 31 64 147 112 203 45 52 149
126 179 126 9 0 43 -26 74 -57z"/>
</g>
</svg>
