<?xml version="1.0" standalone="no"?>
<!DOCTYPE svg PUBLIC "-//W3C//DTD SVG 20010904//EN"
 "http://www.w3.org/TR/2001/REC-SVG-20010904/DTD/svg10.dtd">
<svg version="1.0" xmlns="http://www.w3.org/2000/svg"
 width="2048.000000pt" height="2048.000000pt" viewBox="0 0 2048.000000 2048.000000"
 preserveAspectRatio="xMidYMid meet">

<g transform="translate(0.000000,2048.000000) scale(0.100000,-0.100000)"
fill="#000000" stroke="none">
<path d="M10200 18930 c-19 -5 -44 -19 -56 -33 -20 -23 -21 -39 -28 -318 -4
-161 -10 -297 -12 -301 -3 -4 -132 -8 -287 -8 -311 0 -311 0 -343 -62 -20 -38
-14 -101 13 -130 39 -44 67 -48 349 -48 l266 0 -6 -137 c-4 -76 -11 -302 -16
-503 -5 -201 -13 -458 -16 -571 l-7 -207 -61 -6 c-786 -84 -1478 -541 -1871
-1236 -137 -241 -235 -531 -282 -833 -11 -73 -17 -205 -20 -465 l-5 -363 -92
88 c-227 218 -510 359 -825 412 -68 12 -137 21 -153 21 -16 0 -30 6 -33 13 -2
6 -6 139 -10 295 l-6 282 116 0 c102 0 117 2 135 20 26 26 25 55 -2 74 -17 12
-49 16 -134 16 l-111 0 -7 46 c-3 26 -6 81 -6 123 0 86 -8 101 -55 101 -50 0
-55 -12 -55 -147 l0 -123 -118 0 c-103 0 -121 -3 -135 -18 -23 -26 -21 -58 5
-76 17 -12 49 -16 132 -16 l109 0 -6 -217 c-4 -120 -7 -252 -7 -294 l0 -76
-72 -7 c-189 -17 -365 -69 -553 -160 -164 -81 -282 -164 -411 -291 -254 -250
-420 -578 -464 -919 -5 -41 -10 -815 -10 -1836 l0 -1765 203 100 202 101 5
1694 5 1695 28 100 c102 363 365 659 707 796 131 52 228 70 400 76 143 4 179
2 269 -17 501 -103 885 -517 941 -1015 6 -56 10 -591 10 -1425 l0 -1335 293 3
c160 2 298 5 304 7 10 3 13 474 16 2192 3 1942 5 2197 19 2268 66 332 186 597
384 842 257 317 622 542 1019 629 618 134 1260 -60 1697 -514 246 -255 408
-569 481 -927 l22 -110 3 -2516 2 -2516 118 -22 c186 -36 452 -81 473 -81 18
0 19 46 21 1768 l3 1767 32 117 c114 421 434 743 850 855 89 24 115 27 288 27
169 1 200 -2 285 -23 456 -116 791 -465 887 -927 15 -71 17 -252 20 -1891 l4
-1813 24 0 c32 0 159 17 278 37 l97 16 -3 1836 c-3 2048 4 1855 -73 2090 -138
422 -478 796 -874 962 -160 66 -414 129 -526 129 l-34 0 -1 108 c-1 59 -4 191
-8 294 l-6 187 123 3 c109 3 125 5 138 22 19 27 18 42 -6 66 -18 18 -33 20
-140 20 l-120 0 0 123 c0 133 -5 147 -51 147 -54 0 -59 -7 -59 -80 0 -37 -3
-95 -6 -129 l-7 -61 -112 0 c-136 0 -163 -15 -142 -76 10 -29 33 -34 154 -34
l102 0 -5 -212 c-2 -117 -7 -249 -10 -293 l-5 -80 -122 -17 c-355 -50 -646
-190 -894 -431 l-81 -79 -5 369 c-4 314 -7 387 -26 496 -65 395 -211 742 -451
1069 -89 122 -342 380 -455 465 -386 289 -774 445 -1237 499 l-56 6 -6 72 c-7
86 -36 1112 -36 1249 l0 97 260 0 c275 0 304 4 343 48 27 29 33 92 13 130 -32
62 -32 62 -343 62 -263 0 -283 1 -283 18 -1 100 -22 581 -26 595 -11 37 -101
62 -164 47z"/>
<path d="M10100 14990 c-201 -28 -398 -128 -549 -278 -151 -150 -239 -319
-276 -528 -12 -69 -15 -185 -15 -575 0 -319 3 -489 10 -489 6 0 10 25 10 55
l0 55 94 0 c89 0 94 -1 100 -22 3 -13 7 -95 8 -183 1 -88 5 128 8 480 6 623 6
642 28 710 69 219 206 380 407 476 99 48 198 69 320 69 126 0 222 -22 330 -74
224 -110 380 -324 414 -570 7 -46 12 -309 13 -644 1 -312 4 -494 5 -404 l3
162 100 0 100 0 1 -57 c2 -54 2 -53 11 27 5 47 7 283 5 525 -3 440 -3 440 -30
538 -47 175 -130 320 -256 447 -127 127 -277 213 -456 260 -92 24 -284 34
-385 20z"/>
<path d="M6560 13174 c-205 -36 -329 -101 -455 -236 -65 -69 -111 -148 -153
-261 l-27 -72 0 -575 c-1 -316 1 -486 2 -377 l3 197 70 0 70 0 2 -62 c3 -100
15 296 17 532 1 236 11 297 68 402 38 71 144 176 219 215 166 88 385 85 540
-8 86 -51 168 -139 209 -222 63 -130 65 -147 66 -602 0 -225 2 -405 4 -400 2
6 6 40 10 78 l7 67 63 0 64 0 3 -47 c8 -118 20 269 16 512 -5 260 -6 273 -31
351 -80 244 -259 418 -497 484 -73 20 -220 33 -270 24z"/>
<path d="M13675 13150 c-288 -75 -492 -309 -535 -612 -7 -48 -8 -214 -3 -488
4 -228 9 -369 11 -312 l3 102 63 0 c71 0 75 -3 78 -73 1 -23 5 143 8 368 5
324 10 421 22 460 58 193 215 346 399 390 286 67 548 -77 657 -363 l26 -67 6
-515 c3 -283 7 -444 8 -357 l2 157 70 0 69 0 4 -77 c2 -43 3 131 3 387 l-1
465 -29 75 c-87 230 -274 402 -502 460 -101 26 -261 26 -359 0z"/>
<path d="M7985 9484 c-527 -33 -881 -79 -1255 -160 -746 -163 -1439 -445
-2027 -827 -68 -43 -123 -81 -123 -84 0 -3 12 3 28 13 50 33 263 154 333 189
509 257 1105 418 1784 482 264 25 876 25 1160 0 422 -37 816 -97 1215 -183
144 -31 510 -120 570 -139 25 -7 97 -28 160 -45 289 -79 695 -214 1125 -373
1056 -391 2066 -533 2990 -422 708 86 1373 325 1934 698 206 136 369 267 523
418 89 88 96 102 15 31 -56 -49 -210 -148 -302 -194 -286 -145 -707 -249
-1165 -288 -376 -32 -973 -22 -1460 26 -800 78 -1803 262 -2435 447 -150 44
-473 128 -625 162 -63 14 -142 32 -175 40 -329 75 -845 151 -1270 186 -227 19
-844 33 -1000 23z"/>
<path d="M6960 8703 c-19 -1 -93 -8 -165 -13 -416 -35 -835 -150 -1189 -327
-114 -57 -290 -162 -283 -169 2 -2 30 5 62 16 305 105 873 200 1415 236 303
20 953 15 1275 -10 331 -26 764 -81 1045 -132 184 -34 487 -94 520 -104 56
-16 59 -10 5 10 -764 282 -1425 437 -2065 485 -180 13 -520 18 -620 8z"/>
<path d="M12230 7363 c0 -169 14 -217 72 -253 39 -25 102 -23 144 5 55 36 80
144 48 211 -28 59 -60 77 -127 71 l-57 -5 1 50 c2 55 -8 68 -53 68 l-28 0 0
-147z m166 -48 c46 -32 32 -145 -18 -145 -34 0 -49 13 -57 51 -9 39 2 78 26
97 21 15 24 15 49 -3z"/>
<path d="M5109 7477 c-21 -14 -39 -37 -47 -62 -25 -77 7 -125 104 -154 71 -21
89 -44 55 -72 -31 -25 -59 -24 -115 6 l-46 24 0 -34 c0 -55 35 -87 102 -93
101 -8 158 39 158 130 0 57 -19 83 -77 103 -27 10 -60 22 -75 27 -17 6 -28 18
-28 29 0 41 83 52 138 19 l32 -20 0 39 c0 56 -34 81 -110 81 -43 0 -65 -6 -91
-23z"/>
<path d="M5925 7464 c28 -151 111 -349 153 -365 13 -5 28 -6 34 -3 27 17 138
305 138 359 0 30 -22 47 -56 43 -26 -3 -29 -8 -41 -68 -16 -80 -52 -190 -62
-190 -9 0 -57 149 -66 202 -7 42 -27 58 -75 58 -32 0 -32 -1 -25 -36z"/>
<path d="M6312 7488 c-18 -18 -14 -53 8 -73 18 -17 21 -17 45 -1 42 27 28 86
-20 86 -12 0 -26 -5 -33 -12z"/>
<path d="M7051 7481 c-16 -29 -14 -46 8 -65 26 -23 59 -13 67 21 9 34 -6 57
-39 61 -18 2 -29 -3 -36 -17z"/>
<path d="M7747 7464 c-3 -20 -12 -98 -18 -174 -15 -167 -10 -190 46 -190 l35
0 1 103 c1 150 10 159 44 42 34 -113 54 -145 95 -145 25 0 30 6 48 58 12 31
29 83 38 116 21 77 34 58 34 -52 0 -103 9 -122 57 -122 l36 0 -8 138 c-9 175
-18 222 -45 244 -52 42 -82 10 -127 -132 -29 -91 -40 -112 -47 -89 -2 8 -19
56 -37 108 -35 100 -63 131 -120 131 -23 0 -27 -5 -32 -36z"/>
<path d="M9245 7476 c-61 -37 -90 -95 -90 -183 0 -63 3 -76 30 -114 41 -58 86
-83 152 -83 70 0 107 26 111 79 3 31 1 37 -10 28 -7 -6 -31 -16 -53 -23 -88
-26 -153 39 -142 139 9 84 93 126 171 86 40 -21 43 -20 38 20 -6 52 -41 75
-111 75 -41 0 -67 -7 -96 -24z"/>
<path d="M9537 7493 c-9 -8 -7 -331 2 -363 5 -20 14 -26 44 -28 l37 -3 0 100
c0 77 4 103 16 115 19 20 25 20 50 2 16 -12 20 -31 24 -113 l5 -98 38 -3 37
-3 0 88 c-1 114 -12 162 -46 192 -23 19 -36 22 -76 19 l-48 -5 0 33 c0 50 -56
95 -83 67z"/>
<path d="M10710 7312 c0 -203 2 -212 52 -212 l28 0 0 99 c0 77 4 103 16 115
43 44 74 -1 74 -109 0 -89 8 -105 53 -105 l29 0 -4 119 c-3 117 -4 120 -33
151 -28 29 -34 31 -82 28 l-53 -5 0 38 c0 40 -26 69 -62 69 -17 0 -18 -15 -18
-188z"/>
<path d="M11674 7492 c-27 -18 -36 -59 -37 -176 -2 -133 6 -163 56 -200 23
-17 43 -21 101 -21 82 0 106 12 106 55 l0 29 -76 -2 c-82 -2 -104 10 -104 60
0 21 4 23 58 23 65 0 82 11 82 52 0 27 -1 27 -67 30 l-68 3 0 35 0 35 75 3
c84 3 100 12 100 53 l0 29 -107 0 c-60 0 -113 -4 -119 -8z"/>
<path d="M13293 7473 c-27 -40 -32 -257 -7 -308 26 -56 55 -69 146 -70 87 0
108 12 108 63 0 23 -2 23 -62 17 -80 -7 -112 7 -116 53 l-3 32 55 0 c61 0 86
16 86 56 0 23 -3 24 -71 24 l-70 0 3 38 3 37 75 3 c81 3 100 14 100 59 0 23
-2 23 -115 23 -113 0 -115 0 -132 -27z"/>
<path d="M13600 7324 c0 -100 4 -184 10 -194 6 -11 28 -24 49 -31 51 -15 81 0
81 41 0 24 -5 29 -27 32 l-28 3 -5 148 c-4 132 -7 150 -24 163 -11 8 -28 14
-38 14 -17 0 -18 -13 -18 -176z"/>
<path d="M13940 7321 c0 -107 4 -190 10 -202 8 -13 21 -19 45 -19 l35 0 1 128
0 127 48 -100 c59 -123 87 -155 136 -155 l35 0 0 183 c0 165 -2 186 -18 200
-10 10 -28 17 -40 17 -21 0 -22 -4 -22 -110 0 -60 -3 -110 -7 -110 -5 0 -25
38 -46 84 -47 102 -71 127 -131 133 l-46 6 0 -182z"/>
<path d="M14640 7312 c0 -202 2 -212 52 -212 26 0 27 2 30 57 l3 58 39 -53
c46 -64 78 -80 112 -57 23 15 33 45 15 45 -12 0 -67 55 -88 86 -14 23 -13 27
36 89 28 35 51 67 51 70 0 3 -17 5 -37 5 -32 0 -44 -7 -85 -51 l-48 -51 0 85
c0 77 -2 87 -22 101 -12 9 -30 16 -40 16 -17 0 -18 -15 -18 -188z"/>
<path d="M14957 7493 c-11 -11 -8 -352 3 -374 7 -13 21 -19 43 -19 l32 0 -3
91 c-4 94 10 139 43 139 33 0 45 -30 45 -111 0 -96 10 -119 50 -119 l30 0 0
113 c0 160 -27 198 -131 184 l-39 -5 0 44 c0 39 -3 46 -26 54 -30 12 -38 12
-47 3z"/>
<path d="M15297 7493 c-12 -11 -8 -318 4 -351 8 -24 20 -34 48 -43 42 -12 80
0 83 26 0 8 1 21 2 27 1 7 -12 15 -29 18 l-30 5 -3 145 c-2 133 -4 146 -23
163 -22 18 -41 22 -52 10z"/>
<path d="M5416 7438 c-13 -18 -16 -51 -16 -154 0 -116 2 -134 20 -157 45 -57
150 -41 150 23 0 27 -2 29 -30 24 -47 -10 -60 8 -60 82 l0 64 33 0 c40 0 57
15 57 52 0 27 -2 28 -45 28 -43 0 -45 1 -45 30 0 25 -4 30 -24 30 -14 0 -32
-10 -40 -22z"/>
<path d="M12906 7438 c-13 -18 -16 -51 -16 -154 0 -116 2 -134 20 -157 45 -57
150 -41 150 23 0 27 -2 29 -30 24 -47 -10 -60 8 -60 82 l0 64 33 0 c40 0 57
15 57 52 0 27 -2 28 -45 28 -43 0 -45 1 -45 30 0 25 -4 30 -24 30 -14 0 -32
-10 -40 -22z"/>
<path d="M6528 7371 c-33 -29 -33 -31 -36 -129 -4 -116 4 -142 48 -142 l30 0
0 84 c0 113 9 136 55 136 30 0 35 3 35 24 0 61 -77 76 -132 27z"/>
<path d="M6740 7362 c-47 -47 -59 -100 -34 -161 22 -54 60 -75 125 -68 46 6
48 5 40 -16 -13 -34 -54 -44 -107 -25 l-44 16 0 -25 c0 -40 18 -62 60 -73 28
-7 52 -8 78 0 78 20 107 86 100 220 -8 132 -36 169 -127 170 -49 0 -57 -3 -91
-38z m111 -42 c37 -21 15 -120 -27 -120 -44 0 -61 87 -22 114 27 19 24 19 49
6z"/>
<path d="M7274 7366 l-34 -34 0 -104 c0 -113 6 -128 52 -128 l28 0 0 105 c0
94 2 105 20 115 27 14 56 -2 64 -35 4 -14 6 -55 5 -90 -2 -74 10 -95 52 -95
l29 0 0 99 c0 111 -8 141 -46 176 -22 20 -37 25 -81 25 -49 0 -59 -4 -89 -34z"/>
<path d="M8261 7383 c-11 -10 -24 -32 -27 -50 l-6 -31 45 16 c34 12 53 14 73
7 44 -16 39 -32 -12 -40 -63 -9 -90 -23 -103 -52 -37 -82 30 -154 132 -140 64
9 89 41 95 125 9 127 -29 182 -123 182 -36 0 -60 -6 -74 -17z m119 -183 c0
-27 -34 -44 -60 -30 -11 6 -20 14 -20 18 0 17 25 32 52 32 21 0 28 -5 28 -20z"/>
<path d="M8568 7371 c-33 -29 -33 -31 -36 -129 -4 -116 4 -142 48 -142 l30 0
0 84 c0 113 9 136 55 136 30 0 35 3 35 24 0 61 -77 76 -132 27z"/>
<path d="M8720 7391 c0 -17 42 -146 67 -205 28 -68 25 -106 -10 -106 -39 0
-52 -15 -39 -44 16 -35 57 -44 90 -19 45 33 105 160 142 300 14 55 1 83 -38
83 -26 0 -29 -4 -39 -62 -6 -35 -16 -76 -23 -93 l-12 -30 -12 25 c-8 14 -19
50 -26 80 -7 30 -19 61 -28 68 -18 14 -72 16 -72 3z"/>
<path d="M9870 7291 c0 -96 3 -112 23 -142 27 -41 60 -59 107 -59 88 0 120 51
120 187 0 100 -10 123 -56 123 -24 0 -24 -1 -24 -103 0 -110 -6 -127 -47 -127
-32 0 -43 33 -43 124 0 79 -15 106 -58 106 -21 0 -22 -4 -22 -109z"/>
<path d="M10253 7382 c-33 -26 -43 -64 -43 -166 0 -101 7 -116 52 -116 l28 0
0 98 c0 109 6 122 57 122 28 0 33 4 33 23 0 52 -80 76 -127 39z"/>
<path d="M10479 7377 c-87 -58 -91 -198 -8 -260 42 -30 108 -34 142 -7 32 26
41 88 10 75 -10 -4 -32 -9 -48 -12 -65 -11 -106 67 -64 121 19 24 27 27 58 23
20 -3 44 -8 54 -12 14 -6 17 -2 17 24 0 69 -90 96 -161 48z"/>
<path d="M11953 7393 c-7 -2 -13 -19 -13 -36 l0 -32 55 3 c36 3 55 0 55 -7 0
-7 -25 -41 -56 -77 -48 -57 -55 -70 -52 -102 l3 -37 105 0 105 0 3 33 3 32
-55 0 c-34 0 -56 4 -56 11 0 6 19 32 41 57 58 66 76 105 61 137 -11 24 -15 25
-99 24 -49 0 -94 -3 -100 -6z"/>
<path d="M12617 7370 c-60 -53 -72 -145 -27 -218 53 -87 220 -77 220 13 0 22
-1 22 -42 8 -42 -14 -82 -11 -105 9 -24 20 -13 28 37 28 90 0 128 36 114 109
-16 80 -130 110 -197 51z m107 -46 c24 -9 19 -41 -6 -48 -36 -9 -68 -7 -68 5
0 38 34 58 74 43z"/>
<path d="M14367 7386 c-17 -14 -43 -73 -35 -82 3 -2 18 2 34 11 37 19 88 19
104 0 16 -19 17 -19 -52 -34 -72 -15 -103 -48 -94 -100 3 -19 17 -46 31 -60
22 -22 34 -26 86 -26 56 0 63 3 90 33 27 30 29 38 29 115 0 84 -10 113 -50
144 -20 17 -121 16 -143 -1z m113 -185 c0 -26 -25 -44 -50 -36 -22 7 -27 40
-7 48 30 13 57 7 57 -12z"/>
<path d="M6302 7265 c3 -109 6 -127 23 -144 30 -28 79 -36 99 -15 22 21 17 58
-9 63 -30 5 -35 19 -35 112 0 93 -8 109 -53 109 l-29 0 4 -125z"/>
<path d="M7050 7267 c0 -137 8 -160 60 -171 44 -8 70 8 70 44 0 22 -5 29 -22
32 -22 3 -23 9 -28 101 -5 103 -12 117 -57 117 -23 0 -23 -2 -23 -123z"/>
<path d="M11216 7294 c-3 -9 -6 -24 -6 -35 0 -18 6 -20 83 -17 l82 3 3 33 3
32 -79 0 c-64 0 -81 -3 -86 -16z"/>
<path d="M5646 7194 c-19 -18 -21 -65 -4 -82 7 -7 24 -12 38 -12 33 0 50 17
50 50 0 49 -52 76 -84 44z"/>
<path d="M7560 6275 l0 -355 60 0 60 0 0 355 0 355 -60 0 -60 0 0 -355z"/>
<path d="M9140 6335 l0 -295 -95 0 c-95 0 -109 6 -79 31 21 18 51 78 59 120
19 103 -108 219 -241 219 -32 0 -176 -42 -202 -58 -7 -5 -19 -35 -27 -67 -13
-57 -13 -58 16 -107 17 -28 41 -67 54 -86 14 -20 25 -40 25 -44 0 -14 -185 -9
-203 5 -9 6 -36 69 -62 138 -25 70 -52 143 -60 163 l-15 36 -65 0 -64 0 13
-37 c79 -216 96 -267 96 -278 0 -23 -59 -35 -166 -35 -57 0 -105 -3 -107 -7
-3 -5 6 -32 19 -62 l24 -53 83 3 c66 3 93 9 135 31 l52 27 36 -24 c20 -14 58
-27 91 -31 65 -8 202 1 288 20 50 10 68 10 110 -2 30 -8 122 -16 228 -19 l177
-5 0 356 0 356 -60 0 -60 0 0 -295z m-265 -85 c19 -17 25 -34 25 -63 0 -35 -6
-47 -45 -84 -25 -24 -52 -43 -59 -43 -22 0 -146 173 -134 186 2 2 19 10 38 19
52 23 143 15 175 -15z"/>
<path d="M9410 6275 l0 -355 60 0 60 0 0 355 0 355 -60 0 -60 0 0 -355z"/>
<path d="M12138 6333 l-3 -296 -80 2 c-118 4 -115 -2 -115 208 l0 173 -60 0
-60 0 0 -164 c0 -150 -2 -165 -21 -190 -26 -33 -84 -36 -123 -5 l-26 20 0 150
0 149 -59 0 -59 0 -4 -139 c-3 -123 -5 -143 -24 -168 -17 -23 -30 -29 -68 -31
l-46 -3 0 170 0 171 -60 0 -60 0 0 -170 0 -170 -81 0 c-124 0 -119 -8 -119
186 l0 165 -62 -3 -63 -3 -5 -151 c-6 -193 -7 -194 -127 -194 -70 0 -86 3
-100 19 -9 11 -41 88 -72 173 l-56 153 -62 3 c-47 2 -63 0 -63 -10 0 -8 23
-75 50 -151 28 -76 50 -144 50 -151 0 -23 -58 -36 -166 -36 -57 0 -105 -3
-107 -7 -2 -5 7 -32 20 -62 l24 -53 82 3 c64 3 94 10 137 31 49 24 56 26 71
12 30 -27 109 -44 206 -44 98 0 149 14 189 51 20 19 21 19 44 -6 36 -38 79
-45 273 -45 158 0 182 2 217 20 21 11 41 24 45 29 3 6 21 0 41 -14 69 -47 163
-45 232 5 37 26 42 27 54 13 32 -39 88 -53 216 -53 l122 0 0 355 0 355 -60 0
-60 0 -2 -297z"/>
<path d="M12410 6275 l0 -355 60 0 60 0 0 355 0 355 -60 0 -60 0 0 -355z"/>
<path d="M15054 6502 c-60 -70 -115 -135 -123 -144 -11 -15 -10 -26 10 -73
l23 -55 133 0 c147 0 180 -9 201 -55 13 -29 15 -58 6 -104 l-6 -31 -233 0
c-192 0 -235 3 -245 15 -8 10 -11 61 -11 170 l2 156 -63 -3 -63 -3 -5 -146
c-6 -182 -10 -189 -109 -189 -102 1 -101 -1 -101 189 l0 161 -60 0 -60 0 0
-134 c0 -139 -10 -190 -40 -206 -10 -6 -61 -10 -113 -10 -131 0 -127 -7 -127
208 l0 172 -60 0 -60 0 0 -164 c0 -150 -2 -165 -21 -190 -28 -36 -89 -37 -124
-1 -24 23 -25 28 -25 170 l0 145 -59 0 -59 0 -4 -145 c-3 -139 -4 -146 -28
-169 -16 -16 -39 -26 -65 -28 l-40 -3 -3 173 -2 172 -60 0 -60 0 0 -170 0
-170 -75 0 c-63 0 -76 3 -85 19 -5 11 -10 84 -10 164 l0 145 -32 6 c-181 36
-299 0 -355 -108 -21 -40 -28 -141 -14 -194 16 -59 71 -117 128 -136 77 -26
88 -23 112 35 11 29 21 56 21 60 0 5 -20 9 -44 9 -69 0 -89 23 -94 106 -3 59
-1 73 17 96 23 29 75 45 109 34 17 -6 20 -19 24 -125 6 -130 18 -165 71 -205
27 -20 43 -21 247 -24 204 -3 221 -2 259 17 22 12 42 25 46 31 3 6 23 -2 47
-18 35 -23 52 -27 109 -27 60 0 72 4 112 32 41 28 47 30 59 16 29 -35 90 -53
185 -53 101 0 135 9 174 46 l25 24 24 -25 c29 -31 77 -45 150 -45 53 0 130 26
144 48 4 7 20 2 42 -13 20 -14 50 -27 68 -30 17 -3 141 -5 276 -3 l245 3 23
65 c32 93 28 210 -10 267 -41 63 -82 77 -225 81 -68 2 -123 7 -123 11 0 4 18
25 41 46 22 22 81 84 131 138 l90 97 -74 0 -75 0 -109 -128z"/>
<path d="M8180 6525 l0 -55 65 0 65 0 0 55 0 55 -65 0 -65 0 0 -55z"/>
<path d="M9900 6515 l0 -55 60 0 60 0 0 55 0 55 -60 0 -60 0 0 -55z"/>
<path d="M10070 6515 l0 -55 65 0 65 0 0 55 0 55 -65 0 -65 0 0 -55z"/>
<path d="M12910 6515 l0 -55 60 0 60 0 0 55 0 55 -60 0 -60 0 0 -55z"/>
<path d="M13080 6515 l0 -55 60 0 60 0 0 55 0 55 -60 0 -60 0 0 -55z"/>
<path d="M14680 6515 l0 -55 65 0 65 0 0 55 0 55 -65 0 -65 0 0 -55z"/>
<path d="M5265 6386 c-5 -3 -31 -7 -57 -11 l-48 -6 0 -169 0 -169 -44 -44
c-50 -50 -66 -103 -66 -212 l0 -65 65 0 65 0 0 70 c0 74 17 123 45 134 9 3 51
6 93 6 81 1 140 16 173 46 18 16 20 16 37 1 41 -38 88 -47 232 -47 l140 0 0
230 0 230 -60 0 -60 0 -2 -171 -3 -172 -95 2 c-52 1 -99 6 -105 12 -5 5 -8 46
-7 92 2 75 0 86 -28 134 -42 72 -96 103 -192 109 -40 2 -77 2 -83 0z m147
-134 c45 -45 42 -166 -5 -196 -12 -8 -42 -16 -67 -18 l-45 -3 -3 114 c-2 85 1
117 10 123 20 14 89 1 110 -20z"/>
<path d="M6410 6383 c-14 -2 -40 -6 -57 -9 l-33 -5 -2 -167 -3 -167 -48 2
c-88 5 -86 2 -89 181 l-3 157 -62 3 -63 3 0 -246 0 -247 -29 -29 c-16 -16 -39
-29 -50 -29 -31 0 -33 -13 -10 -69 24 -57 33 -60 94 -32 70 32 115 102 115
177 0 33 2 36 23 28 12 -4 126 -9 253 -11 l231 -4 16 53 c44 141 46 222 8 296
-49 95 -153 137 -291 115z m140 -118 c39 -20 54 -71 47 -153 -4 -36 -8 -66 -9
-68 -2 -1 -35 -4 -73 -5 l-70 -3 -3 114 c-2 84 1 116 10 122 20 12 66 9 98 -7z"/>
<path d="M9967 6377 c-120 -39 -185 -178 -143 -305 23 -69 50 -100 110 -128
81 -38 100 -34 123 29 12 28 19 55 16 60 -2 4 -22 7 -43 7 -55 0 -90 43 -90
111 0 82 38 129 105 129 56 0 55 2 55 -186 l0 -174 60 0 60 0 0 224 0 224 -24
6 c-53 13 -192 15 -229 3z"/>
<path d="M7830 6158 c0 -126 -5 -240 -11 -261 -10 -37 -29 -52 -91 -71 -16 -5
-15 -10 6 -58 22 -49 27 -53 56 -51 45 2 106 46 132 96 22 40 23 54 26 305 l3
262 -60 0 -61 0 0 -222z"/>
<path d="M7195 6321 c-86 -39 -132 -127 -121 -232 l5 -55 -27 4 c-31 4 -44 -7
-60 -53 -5 -16 -13 -38 -17 -47 -7 -17 8 -18 234 -18 l241 0 0 60 0 61 -121
-2 c-66 -1 -122 1 -125 3 -2 3 -6 24 -10 49 -13 107 80 153 210 103 15 -6 51
79 43 99 -7 20 -102 47 -161 47 -28 0 -69 -9 -91 -19z"/>
<path d="M5622 5783 l3 -58 60 0 60 0 3 58 3 57 -66 0 -66 0 3 -57z"/>
<path d="M5800 5780 l0 -60 60 0 60 0 0 60 0 60 -60 0 -60 0 0 -60z"/>
<path d="M10830 5780 l0 -61 63 3 62 3 3 58 3 57 -66 0 -65 0 0 -60z"/>
<path d="M11002 5783 l3 -58 60 0 60 0 3 58 3 57 -66 0 -66 0 3 -57z"/>
<path d="M14232 5783 l3 -58 60 0 60 0 3 58 3 57 -66 0 -66 0 3 -57z"/>
<path d="M14402 5783 l3 -58 60 0 60 0 3 58 3 57 -66 0 -66 0 3 -57z"/>
<path d="M11600 5285 l0 -116 88 3 87 3 0 110 0 110 -87 3 -88 3 0 -116z"/>
<path d="M11922 5288 l3 -113 88 -3 87 -3 0 116 0 115 -90 0 -91 0 3 -112z"/>
<path d="M6267 4543 c-3 -671 -4 -701 -25 -785 -56 -230 -170 -381 -338 -444
-61 -23 -80 -26 -170 -22 -92 3 -107 7 -175 40 -146 73 -246 210 -299 413 -22
83 -42 315 -39 440 l2 70 -87 3 -88 3 5 -223 c4 -197 7 -234 30 -319 70 -267
208 -456 399 -548 105 -51 149 -60 273 -61 85 0 113 5 184 30 157 54 288 167
373 322 l43 77 1701 1 c1693 0 1702 0 1769 21 116 35 185 119 222 266 15 61
17 142 18 738 l0 670 -87 3 -88 3 0 -629 c0 -384 -4 -650 -10 -683 -22 -116
-74 -177 -170 -198 -28 -6 -132 -8 -270 -4 l-226 6 20 71 c18 65 19 107 20
501 l1 430 -85 0 -85 0 -6 -410 c-6 -420 -8 -446 -48 -512 -49 -79 -115 -95
-371 -86 l-197 6 -6 141 c-10 260 -83 442 -242 602 -76 77 -104 98 -185 138
-117 58 -243 86 -385 86 -219 0 -397 -65 -531 -192 -41 -39 -74 -76 -74 -82 1
-6 33 -46 73 -89 l72 -78 40 56 c124 174 360 244 608 179 195 -50 337 -198
391 -408 21 -80 38 -250 30 -308 l-7 -48 -915 0 -915 0 7 43 c22 132 26 261
26 835 l0 632 -89 0 -90 0 -4 -697z"/>
<path d="M10400 4390 l0 -850 85 0 85 0 0 850 0 850 -85 0 -85 0 0 -850z"/>
<path d="M7557 5143 c-4 -3 -7 -55 -7 -115 l0 -108 90 0 90 0 0 115 0 115 -83
0 c-46 0 -87 -3 -90 -7z"/>
<path d="M9087 5144 c-4 -4 -7 -56 -7 -116 l0 -108 90 0 91 0 -3 113 -3 112
-80 3 c-45 1 -84 0 -88 -4z"/>
<path d="M13607 5143 c-4 -3 -7 -55 -7 -115 l0 -108 90 0 90 0 0 115 0 115
-83 0 c-46 0 -87 -3 -90 -7z"/>
<path d="M11620 4979 c-177 -29 -316 -178 -376 -404 -29 -108 -27 -352 4 -460
50 -174 144 -299 269 -357 61 -29 77 -32 155 -31 147 1 256 50 328 146 l35 47
23 -61 c49 -131 146 -241 249 -279 100 -37 145 -42 380 -38 212 3 232 5 279
26 62 28 125 90 157 157 47 95 52 158 52 600 l0 410 -85 0 -85 0 -6 -410 c-4
-276 -9 -422 -17 -446 -21 -62 -55 -103 -107 -129 -48 -24 -58 -25 -236 -25
l-185 0 -59 30 c-73 37 -126 104 -157 195 -22 63 -22 81 -26 553 l-3 487 -267
-1 c-147 -1 -292 -5 -322 -10z m410 -411 c0 -156 -5 -314 -10 -353 -30 -212
-128 -332 -282 -343 -174 -13 -308 144 -338 398 -27 216 44 438 167 524 64 44
119 55 301 55 l162 1 0 -282z"/>
<path d="M13607 4734 c-4 -4 -7 -253 -7 -553 0 -300 -4 -572 -10 -604 -27
-167 -125 -269 -276 -284 l-54 -6 0 -89 0 -90 53 7 c80 11 194 52 255 92 86
58 156 157 196 280 l18 53 826 2 827 3 0 90 0 90 -375 3 -375 2 -24 35 c-52
77 -74 160 -78 305 -8 253 51 408 186 488 42 24 55 27 146 27 92 0 104 -2 155
-30 66 -36 113 -101 137 -187 12 -44 20 -57 32 -54 9 2 43 7 76 11 114 11 117
13 110 48 -23 111 -116 232 -226 295 -165 94 -410 94 -565 1 -116 -70 -217
-225 -248 -381 -33 -159 -15 -379 39 -502 l25 -56 -335 0 -335 0 -2 503 -3
502 -80 3 c-45 1 -84 0 -88 -4z"/>
<path d="M13000 3255 l0 -116 88 3 87 3 0 110 0 110 -87 3 -88 3 0 -116z"/>
</g>
</svg>
